<svg xmlns="http://www.w3.org/2000/svg" viewBox="0 0 800 125" width="800" height="125" style="width: 100%; height: 100%; transform: translate3d(0px, 0px, 0px);" preserveAspectRatio="xMidYMid meet">
            <g clip-path="url(#animationMask_IYBOkskni7)"><g style="display: block;" transform="matrix(1,0,0,1,0,0)" opacity="1"><rect width="800" height="125" fill="#48773c"></rect></g><g style="display: block;" transform="matrix(0.32695358991622925,0,0,0.32695358991622925,556.4141845703125,23.96913719177246)" opacity="1"></g><g style="display: block;" transform="matrix(0.9999973177909851,0,0,0.9999973177909851,554.460693359375,-56.99885559082031)" opacity="1"><g opacity="1" transform="matrix(1,0,0,1,92.93800354003906,92.93800354003906)"><path fill="rgb(72,118,60)" fill-opacity="1" d=" M92.43699645996094,92.68900299072266 C92.43699645996094,92.68900299072266 -92.68800354003906,92.43699645996094 -92.68800354003906,92.43699645996094 C-92.68800354003906,92.43699645996094 -92.43599700927734,-92.68900299072266 -92.43599700927734,-92.68900299072266 C-92.43599700927734,-92.68900299072266 92.68800354003906,-92.43599700927734 92.68800354003906,-92.43599700927734 C92.68800354003906,-92.43599700927734 92.43699645996094,92.68900299072266 92.43699645996094,92.68900299072266z"></path></g><g opacity="1" transform="matrix(1,0,0,1,94.29100036621094,117.18099975585938)"><path fill="rgb(255,255,255)" fill-opacity="1" d=" M68.36100006103516,-0.675000011920929 C63.4640007019043,-7.564000129699707 41.30799865722656,-35.06999969482422 0.05400000140070915,-35.125999450683594 C-41.207000732421875,-35.18199920654297 -63.43199920654297,-7.736999988555908 -68.35399627685547,-0.8610000014305115 C-68.56400299072266,-0.5669999718666077 -68.74400329589844,-0.31299999356269836 -68.89199829101562,-0.09700000286102295 C-68.74500274658203,0.125 -68.56500244140625,0.3779999911785126 -68.35700225830078,0.6769999861717224 C-63.45199966430664,7.561999797821045 -41.303001403808594,35.06999969482422 -0.041999999433755875,35.125999450683594 C41.21200180053711,35.18199920654297 63.44300079345703,7.735000133514404 68.35900115966797,0.8629999756813049 C68.5739974975586,0.5659999847412109 68.7509994506836,0.31299999356269836 68.89199829101562,0.09099999815225601 C68.7509994506836,-0.125 68.57499694824219,-0.3799999952316284 68.36100006103516,-0.675000011920929z"></path></g><g opacity="1" transform="matrix(0.9999971985816956,0,0,0.9999971985816956,0.0002593994140625,0.000335693359375)"><path fill="rgb(72,119,60)" fill-opacity="1" d=" M85.22599792480469,134.02200317382812 C84.66500091552734,136.218994140625 84.01200103759766,137.01100158691406 83.45500183105469,137.70199584960938 C82.89900207519531,138.4029998779297 80.84100341796875,139.29400634765625 79.53600311279297,139.1959991455078 C78.22799682617188,139.0970001220703 78.0510025024414,135.60699462890625 78.0530014038086,133.81399536132812 C78.05400085449219,133.19400024414062 77.17400360107422,135.031005859375 76.72100067138672,131.29600524902344 C76.43199920654297,128.90499877929688 74.89399719238281,131.54299926757812 74.78800201416016,129.947998046875 C74.68099975585938,128.35699462890625 73.91500091552734,128.67300415039062 73.10900115966797,127.6780014038086 C72.30999755859375,126.68299865722656 71.30799865722656,127.77200317382812 70.18599700927734,128.2729949951172 C69.07099914550781,128.76699829101562 69.52999877929688,129.0290069580078 67.94499969482422,128.5279998779297 C67.90399932861328,128.51400756835938 67.88300323486328,128.5030059814453 67.84300231933594,128.48800659179688 C66.39399719238281,125.0479965209961 65.59500122070312,121.26599884033203 65.60099792480469,117.30000305175781 C65.60199737548828,116.3290023803711 65.65499877929688,115.375 65.74700164794922,114.43099975585938 C65.8010025024414,114.33499908447266 65.85800170898438,114.24299621582031 65.92500305175781,114.16400146484375 C67.4469985961914,112.36799621582031 67.41500091552734,111.9469985961914 67.41500091552734,111.9469985961914 C67.41500091552734,111.9469985961914 69.09600067138672,111.36599731445312 69.09600067138672,111.36599731445312 C69.09600067138672,111.36599731445312 71.78099822998047,111.78399658203125 73.8030014038086,112.54900360107422 C75.46800231933594,113.1760025024414 78.09100341796875,114.59300231933594 79.61799621582031,113.97200012207031 C80.72100067138672,113.51799774169922 81.58399963378906,112.91699981689453 81.48100280761719,111.99800109863281 C81.35900115966797,110.84600067138672 80.4520034790039,110.56999969482422 79.35199737548828,111.34600067138672 C78.94599914550781,111.63200378417969 78.08499908447266,109.60700225830078 77.40799713134766,109.70899963378906 C76.73100280761719,109.80799865722656 78.24400329589844,112.08699798583984 77.66899871826172,112.18299865722656 C77.09300231933594,112.27999877929688 75.93900299072266,109.80699920654297 75.74199676513672,109.40699768066406 C75.5479965209961,109.01000213623047 74.65399932861328,108.01699829101562 73.85099792480469,108.77200317382812 C72.15299987792969,110.38099670410156 69.4000015258789,110.27799987792969 68.84700012207031,110.69200134277344 C67.16300201416016,111.9489974975586 66.72100067138672,110.2750015258789 66.76000213623047,109.25599670410156 C66.8280029296875,109.02300262451172 66.89700317382812,108.78800201416016 66.97200012207031,108.55699920654297 C67.52200317382812,107.9520034790039 69.49500274658203,107.75499725341797 70.1709976196289,108.20700073242188 C70.91400146484375,108.70500183105469 71.447998046875,108.08100128173828 71.73899841308594,107.77899932861328 C72.03399658203125,107.48500061035156 71.93199920654297,107.00800323486328 71.74700164794922,106.61199951171875 C71.55899810791016,106.21199798583984 72.11900329589844,105.9209976196289 72.50299835205078,105.81800079345703 C72.89099884033203,105.71600341796875 74.1729965209961,104.82099914550781 74.68399810791016,104.52200317382812 C75.20099639892578,104.22599792480469 77.85900115966797,103.90799713134766 79.04900360107422,104.50499725341797 C80.23899841308594,105.10600280761719 81.33100128173828,104.61799621582031 81.91699981689453,103.93000030517578 C82.65299987792969,103.05899810791016 83.58999633789062,102.39600372314453 84.00499725341797,102.19499969482422 C84.4219970703125,102.0009994506836 82.98200225830078,100.65299987792969 81.79399871826172,102.11900329589844 C80.60399627685547,103.5770034790039 79.99800109863281,103.71199798583984 79.43900299072266,103.71099853515625 C78.88099670410156,103.70999908447266 75.56400299072266,102.87799835205078 75.15599822998047,101.8290023803711 C74.75299835205078,100.78099822998047 76.1969985961914,99.9990005493164 77.4229965209961,99.40599822998047 C78.64800262451172,98.8239974975586 81.99800109863281,98.83699798583984 82.8550033569336,98.64399719238281 C84.59700012207031,98.26399993896484 86.82499694824219,97.39199829101562 87.94499969482422,98.15699768066406 C89.06099700927734,98.90899658203125 83.25900268554688,100.22200012207031 85.16500091552734,101.25499725341797 C85.84200286865234,101.62799835205078 88.91100311279297,99.49500274658203 89.96299743652344,98.94999694824219 C92.43599700927734,97.67900085449219 87.56700134277344,97.25199890136719 88.2020034790039,94.66100311279297 C88.9209976196289,91.73200225830078 82.23300170898438,92.85600280761719 78.9000015258789,93.10099792480469 C83.3740005493164,90.24299621582031 88.68399810791016,88.58499908447266 94.38300323486328,88.59300231933594 C107.94300079345703,88.61100006103516 119.28800201416016,98.01899719238281 122.29900360107422,110.65499877929688 C122.31900024414062,111.27899932861328 122.22100067138672,111.72899627685547 122.15699768066406,111.98400115966797 C121.89600372314453,113.0199966430664 119.93000030517578,113.90799713134766 118.79100036621094,112.23899841308594 C118.5009994506836,111.81800079345703 117.27200317382812,110.6520004272461 117.31099700927734,112.64299774169922 C117.34700012207031,114.63700103759766 119.24299621582031,114.84300231933594 117.40299987792969,116.03500366210938 C115.56600189208984,117.22799682617188 115.2300033569336,116.93900299072266 114.38099670410156,117.23899841308594 C113.53399658203125,117.53800201416016 112.70999908447266,119.58999633789062 112.91100311279297,120.68599700927734 C113.11499786376953,121.78399658203125 115.7300033569336,124.78299713134766 113.78600311279297,124.65699768066406 C113.33100128173828,124.62300109863281 109.89900207519531,122.27300262451172 109.33399963378906,120.76399993896484 C108.73899841308594,119.17500305175781 108.08699798583984,117.62000274658203 107.6259994506836,116.4219970703125 C107.15799713134766,115.22799682617188 105.9469985961914,114.9219970703125 104.91899871826172,115.62200164794922 C103.89600372314453,116.32099914550781 105.2030029296875,117.02100372314453 104.46499633789062,118.51699829101562 C103.73100280761719,120.01200103759766 103.2040023803711,121.34600067138672 102.1259994506836,120.10900115966797 C99.32499694824219,116.88999938964844 95.24600219726562,118.47100067138672 94.61100006103516,114.89199829101562 C94.26899719238281,112.9530029296875 92.5979995727539,113.13700103759766 91.2040023803711,112.03600311279297 C89.802001953125,110.94200134277344 89.02300262451172,110.34700012207031 88.78600311279297,111.13800048828125 C88.5770034790039,111.83200073242188 93.1709976196289,115.48500061035156 93.49800109863281,116.4209976196289 C93.98400115966797,117.80799865722656 92.11799621582031,119.03099822998047 90.7509994506836,119.35800170898438 C89.39099884033203,119.68199920654297 88.79100036621094,118.58999633789062 87.4540023803711,117.19200134277344 C86.11799621582031,115.79900360107422 85.53299713134766,114.802001953125 85.43800354003906,115.8949966430664 C85.302001953125,117.47599792480469 86.70500183105469,119.8010025024414 88.06700134277344,120.6709976196289 C89.22899627685547,121.40899658203125 90.53199768066406,121.74400329589844 90.15399932861328,122.93900299072266 C89.77400207519531,124.13800048828125 90.14600372314453,123.45999908447266 88.84200286865234,124.74600219726562 C87.53500366210938,126.04100036621094 87.28600311279297,126.45700073242188 87.37799835205078,128.24600219726562 C87.46900177001953,130.04100036621094 87.00299835205078,130.14300537109375 86.72100067138672,131.63499450683594 C86.44000244140625,133.1269989013672 85.79299926757812,131.8350067138672 85.22599792480469,134.02200317382812z"></path></g></g><g style="display: block;" transform="matrix(0.9999973177909851,0,0,0.9999973177909851,554.460693359375,-56.99885559082031)" opacity="1"><g opacity="1" transform="matrix(0.9999971985816956,0,0,0.9999971985816956,0.0002593994140625,0.000335693359375)"><path fill="rgb(72,119,60)" fill-opacity="1" d=" M71.30699920654297,99.39800262451172 C71.68000030517578,98.85199737548828 72.91699981689453,97.2959976196289 73.06800079345703,97.0989990234375 C73.38600158691406,96.69000244140625 74.01699829101562,96.60800170898438 74.45899963378906,96.52999877929688 C74.89700317382812,96.44599914550781 75.48100280761719,96.69300079345703 75.5510025024414,97.02200317382812 C75.6259994506836,97.35199737548828 75.37899780273438,98.62999725341797 75.16300201416016,98.8479995727539 C74.55699920654297,99.4749984741211 72.98100280761719,100.36000061035156 72.11299896240234,100.22000122070312 C71.44200134277344,100.11599731445312 71.17900085449219,99.59600067138672 71.30699920654297,99.39800262451172z M69.83000183105469,102.32599639892578 C69.8949966430664,102.2490005493164 69.95500183105469,102.18399810791016 69.9800033569336,102.1520004272461 C70.5,101.56199645996094 71.53299713134766,101.43699645996094 72.24700164794922,101.3270034790039 C72.96199798583984,101.20500183105469 73.91500091552734,101.56700134277344 74.02899932861328,102.04199981689453 C74.1510009765625,102.51499938964844 72.23400115966797,103.38099670410156 71.88300323486328,103.70500183105469 C70.88999938964844,104.61799621582031 69.33300018310547,106.47799682617188 68.42500305175781,106.6780014038086 C68.12699890136719,106.74400329589844 67.88300323486328,106.6989974975586 67.68199920654297,106.5979995727539 C68.28199768066406,105.11000061035156 68.99800109863281,103.67900085449219 69.83000183105469,102.32599639892578z M116.0739974975586,122.60399627685547 C117.04100036621094,122.5270004272461 118.48899841308594,123.86799621582031 117.91999816894531,124.38200378417969 C117.3550033569336,124.88999938964844 115.90599822998047,124.70099639892578 115.18000030517578,124.13200378417969 C114.45800018310547,123.56800079345703 115.63999938964844,122.63899993896484 116.0739974975586,122.60399627685547z M114.85399627685547,121.72000122070312 C114.54399871826172,121.60299682617188 114.2699966430664,121.30899810791016 114.03600311279297,120.60299682617188 C113.8030014038086,119.89700317382812 114.39700317382812,119.49600219726562 114.97599792480469,119.77999877929688 C115.56500244140625,120.08000183105469 116.33000183105469,120.96199798583984 116.3290023803711,121.43099975585938 C116.3280029296875,121.9020004272461 115.16999816894531,121.84400177001953 114.85399627685547,121.72000122070312z M102.16899871826172,121.6520004272461 C101.60099792480469,122.15699768066406 100.14700317382812,121.97000122070312 99.4209976196289,121.4010009765625 C98.69999694824219,120.83899688720703 99.88200378417969,119.90799713134766 100.31300354003906,119.8740005493164 C101.28099822998047,119.78900146484375 102.73200225830078,121.14099884033203 102.16899871826172,121.6520004272461z M90.4229965209961,127.34300231933594 C90.0270004272461,127.98899841308594 88.93900299072266,132.8209991455078 88.21499633789062,132.25799560546875 C87.48600006103516,131.6929931640625 88.51599884033203,126.6520004272461 88.72699737548828,126.26899719238281 C89.86399841308594,124.18800354003906 92.32099914550781,124.29499816894531 90.4229965209961,127.34300231933594z M94.30500030517578,146.08099365234375 C91.49700164794922,146.07699584960938 88.79100036621094,145.6649932861328 86.2300033569336,144.91299438476562 C85.86100006103516,144.61199951171875 85.6510009765625,144.11000061035156 85.88200378417969,143.50799560546875 C86.7750015258789,141.19000244140625 89.42400360107422,140.28599548339844 91.51499938964844,140.08799743652344 C96.1760025024414,139.63900756835938 102.2979965209961,143.1280059814453 103.27300262451172,142.56700134277344 C104.2509994506836,142.00900268554688 106.2239990234375,139.44900512695312 109.11399841308594,139.55999755859375 C111.08699798583984,139.63900756835938 111.0719985961914,139.97000122070312 111.73400115966797,140.2209930419922 C106.89600372314453,143.9010009765625 100.85700225830078,146.08999633789062 94.30500030517578,146.08099365234375z M114.58699798583984,137.74200439453125 C114.30000305175781,137.66099548339844 114.00399780273438,137.56700134277344 113.68399810791016,137.4080047607422 C112.11699676513672,136.60699462890625 112.302001953125,137.88400268554688 111.53199768066406,137.6009979248047 C110.75599670410156,137.31199645996094 112.40499877929688,135.5240020751953 110.08499908447266,137.03500366210938 C107.7760009765625,138.54200744628906 108.4010009765625,136.8000030517578 107.39800262451172,134.24099731445312 C106.38500213623047,131.67999267578125 108.56400299072266,128.76199340820312 110.38099670410156,128.10299682617188 C112.87799835205078,127.2020034790039 114.42900085449219,127.0199966430664 115.60099792480469,126.73300170898438 C119.05400085449219,125.8759994506836 119.78700256347656,123.8280029296875 120.41200256347656,125.07499694824219 C120.52999877929688,125.30899810791016 120.64399719238281,125.53099822998047 120.74800109863281,125.73999786376953 C120.947998046875,126.11299896240234 121.17900085449219,126.86799621582031 121.18900299072266,127.61299896240234 C119.71800231933594,131.4530029296875 117.4530029296875,134.8990020751953 114.58699798583984,137.74200439453125z M122.4800033569336,123.24299621582031 C121.70899963378906,123.03099822998047 118.48699951171875,118.56600189208984 121.04199981689453,115.63400268554688 C121.46700286865234,115.1510009765625 120.18900299072266,113.72899627685547 120.54000091552734,113.7020034790039 C121.93599700927734,113.59600067138672 122.6760025024414,114.46299743652344 123.04100036621094,115.71199798583984 C123.06800079345703,116.26200103759766 123.08899688720703,116.81700134277344 123.08799743652344,117.37799835205078 C123.08499908447266,119.38899993896484 122.8740005493164,121.3489990234375 122.4800033569336,123.24299621582031z"></path></g></g><g style="display: block;" transform="matrix(1.0000029802322388,0,0,1.0000029802322388,149.37496948242188,54.6167106628418)" opacity="1"><g opacity="1" transform="matrix(1,0,0,1,0,0)"><path fill="rgb(255,255,255)" fill-opacity="1" d=" M82.00900268554688,45 C82.00900268554688,45 86.35900115966797,45 86.35900115966797,45 C86.35900115966797,45 86.35900115966797,12.22599983215332 86.35900115966797,12.22599983215332 C86.35900115966797,12.22599983215332 82.22599792480469,12.22599983215332 82.22599792480469,12.22599983215332 C82.22599792480469,12.22599983215332 82.22599792480469,31.030000686645508 82.22599792480469,31.030000686645508 C82.22599792480469,31.030000686645508 76.875,12.22599983215332 76.875,12.22599983215332 C76.875,12.22599983215332 72.00199890136719,12.22599983215332 72.00199890136719,12.22599983215332 C72.00199890136719,12.22599983215332 72.00199890136719,45 72.00199890136719,45 C72.00199890136719,45 76.17900085449219,45 76.17900085449219,45 C76.17900085449219,45 76.17900085449219,24.406999588012695 76.17900085449219,24.406999588012695 C76.17900085449219,24.406999588012695 82.00900268554688,45 82.00900268554688,45z"></path></g><g opacity="1" transform="matrix(1,0,0,1,0,0)"><path fill="rgb(255,255,255)" fill-opacity="1" d=" M62.6510009765625,45.387001037597656 C67.91500091552734,45.387001037597656 70.177001953125,41.617000579833984 70.177001953125,36.54100036621094 C70.177001953125,36.54100036621094 70.177001953125,20.684999465942383 70.177001953125,20.684999465942383 C70.177001953125,15.560999870300293 67.91500091552734,11.83899974822998 62.6510009765625,11.83899974822998 C57.43000030517578,11.83899974822998 55.167999267578125,15.560999870300293 55.167999267578125,20.684999465942383 C55.167999267578125,20.684999465942383 55.167999267578125,36.54100036621094 55.167999267578125,36.54100036621094 C55.167999267578125,41.617000579833984 57.43000030517578,45.387001037597656 62.6510009765625,45.387001037597656z M62.6510009765625,40.79399871826172 C60.9109992980957,40.79399871826172 60.12799835205078,39.393001556396484 60.12799835205078,37.4109992980957 C60.12799835205078,37.4109992980957 60.12799835205078,19.815000534057617 60.12799835205078,19.815000534057617 C60.12799835205078,17.83300018310547 60.9109992980957,16.430999755859375 62.6510009765625,16.430999755859375 C64.43499755859375,16.430999755859375 65.21800231933594,17.83300018310547 65.21800231933594,19.815000534057617 C65.21800231933594,19.815000534057617 65.21800231933594,37.4109992980957 65.21800231933594,37.4109992980957 C65.21800231933594,39.393001556396484 64.43499755859375,40.79399871826172 62.6510009765625,40.79399871826172z"></path></g><g opacity="1" transform="matrix(1,0,0,1,0,0)"><path fill="rgb(255,255,255)" fill-opacity="1" d=" M48.31700134277344,45 C48.31700134277344,45 53.2760009765625,45 53.2760009765625,45 C53.2760009765625,45 53.2760009765625,12.22599983215332 53.2760009765625,12.22599983215332 C53.2760009765625,12.22599983215332 48.31700134277344,12.22599983215332 48.31700134277344,12.22599983215332 C48.31700134277344,12.22599983215332 48.31700134277344,45 48.31700134277344,45z"></path></g><g opacity="1" transform="matrix(1,0,0,1,0,0)"><path fill="rgb(255,255,255)" fill-opacity="1" d=" M33.641998291015625,16.72100067138672 C33.641998291015625,16.72100067138672 37.731998443603516,16.72100067138672 37.731998443603516,16.72100067138672 C37.731998443603516,16.72100067138672 37.731998443603516,45 37.731998443603516,45 C37.731998443603516,45 42.73500061035156,45 42.73500061035156,45 C42.73500061035156,45 42.73500061035156,16.72100067138672 42.73500061035156,16.72100067138672 C42.73500061035156,16.72100067138672 46.82500076293945,16.72100067138672 46.82500076293945,16.72100067138672 C46.82500076293945,16.72100067138672 46.82500076293945,12.22599983215332 46.82500076293945,12.22599983215332 C46.82500076293945,12.22599983215332 33.641998291015625,12.22599983215332 33.641998291015625,12.22599983215332 C33.641998291015625,12.22599983215332 33.641998291015625,16.72100067138672 33.641998291015625,16.72100067138672z"></path></g><g opacity="1" transform="matrix(1,0,0,1,0,0)"><path fill="rgb(255,255,255)" fill-opacity="1" d=" M25.334999084472656,45.387001037597656 C30.599000930786133,45.387001037597656 32.34000015258789,41.90599822998047 32.34000015258789,37.21699905395508 C32.34000015258789,37.21699905395508 32.34000015258789,31.562000274658203 32.34000015258789,31.562000274658203 C32.34000015258789,31.562000274658203 27.815000534057617,31.562000274658203 27.815000534057617,31.562000274658203 C27.815000534057617,31.562000274658203 27.815000534057617,37.604000091552734 27.815000534057617,37.604000091552734 C27.815000534057617,39.53799819946289 27.20599937438965,40.79399871826172 25.422000885009766,40.79399871826172 C23.63800048828125,40.79399871826172 22.89900016784668,39.393001556396484 22.89900016784668,37.4109992980957 C22.89900016784668,37.4109992980957 22.89900016784668,19.815000534057617 22.89900016784668,19.815000534057617 C22.89900016784668,17.83300018310547 23.63800048828125,16.430999755859375 25.422000885009766,16.430999755859375 C27.20599937438965,16.430999755859375 27.815000534057617,17.591999053955078 27.815000534057617,19.621999740600586 C27.815000534057617,19.621999740600586 27.815000534057617,23.923999786376953 27.815000534057617,23.923999786376953 C27.815000534057617,23.923999786376953 32.34000015258789,23.923999786376953 32.34000015258789,23.923999786376953 C32.34000015258789,23.923999786376953 32.34000015258789,20.05699920654297 32.34000015258789,20.05699920654297 C32.34000015258789,15.222999572753906 30.816999435424805,11.83899974822998 25.334999084472656,11.83899974822998 C20.11400032043457,11.83899974822998 17.93899917602539,15.560999870300293 17.93899917602539,20.684999465942383 C17.93899917602539,20.684999465942383 17.93899917602539,36.54100036621094 17.93899917602539,36.54100036621094 C17.93899917602539,41.617000579833984 20.11400032043457,45.387001037597656 25.334999084472656,45.387001037597656z"></path></g><g opacity="1" transform="matrix(1,0,0,1,0,0)"><path fill="rgb(255,255,255)" fill-opacity="1" d=" M8.484000205993652,21.45800018310547 C8.484000205993652,21.45800018310547 8.527000427246094,21.45800018310547 8.527000427246094,21.45800018310547 C8.527000427246094,21.45800018310547 10.484999656677246,34.606998443603516 10.484999656677246,34.606998443603516 C10.484999656677246,34.606998443603516 6.526000022888184,34.606998443603516 6.526000022888184,34.606998443603516 C6.526000022888184,34.606998443603516 8.484000205993652,21.45800018310547 8.484000205993652,21.45800018310547z M5.002999782562256,45 C5.002999782562256,45 5.873000144958496,39.00600051879883 5.873000144958496,39.00600051879883 C5.873000144958496,39.00600051879883 11.13700008392334,39.00600051879883 11.13700008392334,39.00600051879883 C11.13700008392334,39.00600051879883 12.050999641418457,45 12.050999641418457,45 C12.050999641418457,45 17.141000747680664,45 17.141000747680664,45 C17.141000747680664,45 11.529000282287598,12.22599983215332 11.529000282287598,12.22599983215332 C11.529000282287598,12.22599983215332 5.873000144958496,12.22599983215332 5.873000144958496,12.22599983215332 C5.873000144958496,12.22599983215332 0.3050000071525574,45 0.3050000071525574,45 C0.3050000071525574,45 5.002999782562256,45 5.002999782562256,45z"></path></g><g opacity="1" transform="matrix(1,0,0,1,0,0)"><path fill="rgb(255,255,255)" fill-opacity="1" d=" M86.3740005493164,0 C86.3740005493164,0 98.20800018310547,0 98.20800018310547,0 C98.20800018310547,0 98.20800018310547,-4.495999813079834 98.20800018310547,-4.495999813079834 C98.20800018310547,-4.495999813079834 91.33399963378906,-4.495999813079834 91.33399963378906,-4.495999813079834 C91.33399963378906,-4.495999813079834 91.33399963378906,-14.454000473022461 91.33399963378906,-14.454000473022461 C91.33399963378906,-14.454000473022461 96.25,-14.454000473022461 96.25,-14.454000473022461 C96.25,-14.454000473022461 96.25,-18.900999069213867 96.25,-18.900999069213867 C96.25,-18.900999069213867 91.33399963378906,-18.900999069213867 91.33399963378906,-18.900999069213867 C91.33399963378906,-18.900999069213867 91.33399963378906,-28.27899932861328 91.33399963378906,-28.27899932861328 C91.33399963378906,-28.27899932861328 98.20800018310547,-28.27899932861328 98.20800018310547,-28.27899932861328 C98.20800018310547,-28.27899932861328 98.20800018310547,-32.77399826049805 98.20800018310547,-32.77399826049805 C98.20800018310547,-32.77399826049805 86.3740005493164,-32.77399826049805 86.3740005493164,-32.77399826049805 C86.3740005493164,-32.77399826049805 86.3740005493164,0 86.3740005493164,0z"></path></g><g opacity="1" transform="matrix(1,0,0,1,0,0)"><path fill="rgb(255,255,255)" fill-opacity="1" d=" M71.69999694824219,-28.27899932861328 C71.69999694824219,-28.27899932861328 75.79000091552734,-28.27899932861328 75.79000091552734,-28.27899932861328 C75.79000091552734,-28.27899932861328 75.79000091552734,0 75.79000091552734,0 C75.79000091552734,0 80.79299926757812,0 80.79299926757812,0 C80.79299926757812,0 80.79299926757812,-28.27899932861328 80.79299926757812,-28.27899932861328 C80.79299926757812,-28.27899932861328 84.88300323486328,-28.27899932861328 84.88300323486328,-28.27899932861328 C84.88300323486328,-28.27899932861328 84.88300323486328,-32.77399826049805 84.88300323486328,-32.77399826049805 C84.88300323486328,-32.77399826049805 71.69999694824219,-32.77399826049805 71.69999694824219,-32.77399826049805 C71.69999694824219,-32.77399826049805 71.69999694824219,-28.27899932861328 71.69999694824219,-28.27899932861328z"></path></g><g opacity="1" transform="matrix(1,0,0,1,0,0)"><path fill="rgb(255,255,255)" fill-opacity="1" d=" M64.10199737548828,-23.54199981689453 C64.10199737548828,-23.54199981689453 64.1449966430664,-23.54199981689453 64.1449966430664,-23.54199981689453 C64.1449966430664,-23.54199981689453 66.10299682617188,-10.392999649047852 66.10299682617188,-10.392999649047852 C66.10299682617188,-10.392999649047852 62.14400100708008,-10.392999649047852 62.14400100708008,-10.392999649047852 C62.14400100708008,-10.392999649047852 64.10199737548828,-23.54199981689453 64.10199737548828,-23.54199981689453z M60.62099838256836,0 C60.62099838256836,0 61.49100112915039,-5.99399995803833 61.49100112915039,-5.99399995803833 C61.49100112915039,-5.99399995803833 66.75599670410156,-5.99399995803833 66.75599670410156,-5.99399995803833 C66.75599670410156,-5.99399995803833 67.66899871826172,0 67.66899871826172,0 C67.66899871826172,0 72.75900268554688,0 72.75900268554688,0 C72.75900268554688,0 67.14700317382812,-32.77399826049805 67.14700317382812,-32.77399826049805 C67.14700317382812,-32.77399826049805 61.49100112915039,-32.77399826049805 61.49100112915039,-32.77399826049805 C61.49100112915039,-32.77399826049805 55.92300033569336,0 55.92300033569336,0 C55.92300033569336,0 60.62099838256836,0 60.62099838256836,0z"></path></g><g opacity="1" transform="matrix(1,0,0,1,0,0)"><path fill="rgb(255,255,255)" fill-opacity="1" d=" M50.04999923706055,0 C50.04999923706055,0 54.57500076293945,0 54.57500076293945,0 C54.57500076293945,0 54.57500076293945,-32.77399826049805 54.57500076293945,-32.77399826049805 C54.57500076293945,-32.77399826049805 48.310001373291016,-32.77399826049805 48.310001373291016,-32.77399826049805 C48.310001373291016,-32.77399826049805 45.43899917602539,-14.309000015258789 45.43899917602539,-14.309000015258789 C45.43899917602539,-14.309000015258789 45.39500045776367,-14.309000015258789 45.39500045776367,-14.309000015258789 C45.39500045776367,-14.309000015258789 42.17599868774414,-32.77399826049805 42.17599868774414,-32.77399826049805 C42.17599868774414,-32.77399826049805 36.388999938964844,-32.77399826049805 36.388999938964844,-32.77399826049805 C36.388999938964844,-32.77399826049805 36.388999938964844,0 36.388999938964844,0 C36.388999938964844,0 40.479000091552734,0 40.479000091552734,0 C40.479000091552734,0 40.479000091552734,-21.270000457763672 40.479000091552734,-21.270000457763672 C40.479000091552734,-21.270000457763672 40.566001892089844,-21.270000457763672 40.566001892089844,-21.270000457763672 C40.566001892089844,-21.270000457763672 44.263999938964844,0 44.263999938964844,0 C44.263999938964844,0 46.56999969482422,0 46.56999969482422,0 C46.56999969482422,0 49.91999816894531,-21.270000457763672 49.91999816894531,-21.270000457763672 C49.91999816894531,-21.270000457763672 50.04999923706055,-21.270000457763672 50.04999923706055,-21.270000457763672 C50.04999923706055,-21.270000457763672 50.04999923706055,0 50.04999923706055,0z"></path></g><g opacity="1" transform="matrix(1,0,0,1,0,0)"><path fill="rgb(255,255,255)" fill-opacity="1" d=" M29.48200035095215,0 C29.48200035095215,0 34.44200134277344,0 34.44200134277344,0 C34.44200134277344,0 34.44200134277344,-32.77399826049805 34.44200134277344,-32.77399826049805 C34.44200134277344,-32.77399826049805 29.48200035095215,-32.77399826049805 29.48200035095215,-32.77399826049805 C29.48200035095215,-32.77399826049805 29.48200035095215,0 29.48200035095215,0z"></path></g><g opacity="1" transform="matrix(1,0,0,1,0,0)"><path fill="rgb(255,255,255)" fill-opacity="1" d=" M17.14900016784668,0 C17.14900016784668,0 28.024999618530273,0 28.024999618530273,0 C28.024999618530273,0 28.024999618530273,-4.495999813079834 28.024999618530273,-4.495999813079834 C28.024999618530273,-4.495999813079834 22.108999252319336,-4.495999813079834 22.108999252319336,-4.495999813079834 C22.108999252319336,-4.495999813079834 22.108999252319336,-32.77399826049805 22.108999252319336,-32.77399826049805 C22.108999252319336,-32.77399826049805 17.14900016784668,-32.77399826049805 17.14900016784668,-32.77399826049805 C17.14900016784668,-32.77399826049805 17.14900016784668,0 17.14900016784668,0z"></path></g><g opacity="1" transform="matrix(1,0,0,1,0,0)"><path fill="rgb(255,255,255)" fill-opacity="1" d=" M8.484000205993652,0.3869999945163727 C13.748000144958496,0.3869999945163727 15.48799991607666,-3.0940001010894775 15.48799991607666,-7.7829999923706055 C15.48799991607666,-7.7829999923706055 15.48799991607666,-13.437999725341797 15.48799991607666,-13.437999725341797 C15.48799991607666,-13.437999725341797 10.963000297546387,-13.437999725341797 10.963000297546387,-13.437999725341797 C10.963000297546387,-13.437999725341797 10.963000297546387,-7.395999908447266 10.963000297546387,-7.395999908447266 C10.963000297546387,-5.461999893188477 10.354999542236328,-4.205999851226807 8.571000099182129,-4.205999851226807 C6.7870001792907715,-4.205999851226807 6.046999931335449,-5.60699987411499 6.046999931335449,-7.589000225067139 C6.046999931335449,-7.589000225067139 6.046999931335449,-25.184999465942383 6.046999931335449,-25.184999465942383 C6.046999931335449,-27.16699981689453 6.7870001792907715,-28.569000244140625 8.571000099182129,-28.569000244140625 C10.354999542236328,-28.569000244140625 10.963000297546387,-27.408000946044922 10.963000297546387,-25.378000259399414 C10.963000297546387,-25.378000259399414 10.963000297546387,-21.076000213623047 10.963000297546387,-21.076000213623047 C10.963000297546387,-21.076000213623047 15.48799991607666,-21.076000213623047 15.48799991607666,-21.076000213623047 C15.48799991607666,-21.076000213623047 15.48799991607666,-24.94300079345703 15.48799991607666,-24.94300079345703 C15.48799991607666,-29.777000427246094 13.965999603271484,-33.1609992980957 8.484000205993652,-33.1609992980957 C3.263000011444092,-33.1609992980957 1.0880000591278076,-29.43899917602539 1.0880000591278076,-24.315000534057617 C1.0880000591278076,-24.315000534057617 1.0880000591278076,-8.458999633789062 1.0880000591278076,-8.458999633789062 C1.0880000591278076,-3.382999897003174 3.263000011444092,0.3869999945163727 8.484000205993652,0.3869999945163727z"></path></g></g><g style="display: block;" transform="matrix(2.5647878646850586,0,0,2.5647878646850586,60.000431060791016,100.13290405273438)" opacity="1"><g opacity="1" transform="matrix(1,0,0,1,0,0)"><path fill="rgb(255,255,255)" fill-opacity="1" d=" M17.386999130249023,-31.089000701904297 C12.574000358581543,-31.089000701904297 10.902000427246094,-27.916000366210938 10.902000427246094,-23.384000778198242 C10.902000427246094,-23.384000778198242 10.902000427246094,-20.665000915527344 10.902000427246094,-20.665000915527344 C10.902000427246094,-20.665000915527344 15.144000053405762,-20.665000915527344 15.144000053405762,-20.665000915527344 C15.144000053405762,-20.665000915527344 15.144000053405762,-23.79199981689453 15.144000053405762,-23.79199981689453 C15.144000053405762,-25.69499969482422 15.673999786376953,-26.783000946044922 17.142000198364258,-26.783000946044922 C18.610000610351562,-26.783000946044922 19.141000747680664,-25.695999145507812 19.141000747680664,-24.018999099731445 C19.141000747680664,-24.018999099731445 19.141000747680664,-20.711000442504883 19.141000747680664,-20.711000442504883 C19.141000747680664,-19.079999923706055 18.16200065612793,-18.218000411987305 16.652999877929688,-18.218000411987305 C16.652999877929688,-18.218000411987305 14.89900016784668,-18.218000411987305 14.89900016784668,-18.218000411987305 C14.89900016784668,-18.218000411987305 14.89900016784668,-14.274999618530273 14.89900016784668,-14.274999618530273 C14.89900016784668,-14.274999618530273 16.85700035095215,-14.274999618530273 16.85700035095215,-14.274999618530273 C18.488000869750977,-14.274999618530273 19.141000747680664,-13.413999557495117 19.141000747680664,-11.782999992370605 C19.141000747680664,-11.782999992370605 19.141000747680664,-6.706999778747559 19.141000747680664,-6.706999778747559 C19.141000747680664,-5.076000213623047 18.48900032043457,-3.943000078201294 17.06100082397461,-3.943000078201294 C15.470000267028809,-3.943000078201294 14.89900016784668,-5.120999813079834 14.89900016784668,-6.934000015258789 C14.89900016784668,-6.934000015258789 14.89900016784668,-11.329999923706055 14.89900016784668,-11.329999923706055 C14.89900016784668,-11.329999923706055 10.656999588012695,-11.329999923706055 10.656999588012695,-11.329999923706055 C10.656999588012695,-11.329999923706055 10.656999588012695,-7.296000003814697 10.656999588012695,-7.296000003814697 C10.656999588012695,-2.628000020980835 12.329999923706055,0.3630000054836273 17.06100082397461,0.3630000054836273 C21.750999450683594,0.3630000054836273 23.790000915527344,-2.4019999504089355 23.790000915527344,-6.6620001792907715 C23.790000915527344,-6.6620001792907715 23.790000915527344,-11.194000244140625 23.790000915527344,-11.194000244140625 C23.790000915527344,-14.003999710083008 22.68899917602539,-15.815999984741211 20.36400032043457,-16.405000686645508 C22.2810001373291,-17.084999084472656 23.54599952697754,-18.80699920654297 23.54599952697754,-21.389999389648438 C23.54599952697754,-21.389999389648438 23.54599952697754,-24.06399917602539 23.54599952697754,-24.06399917602539 C23.54599952697754,-28.415000915527344 21.670000076293945,-31.089000701904297 17.386999130249023,-31.089000701904297z"></path></g><g opacity="1" transform="matrix(1,0,0,1,0,0)"><path fill="rgb(255,255,255)" fill-opacity="1" d=" M5.0980000495910645,-30.72599983215332 C5.0980000495910645,-30.72599983215332 0.8159999847412109,-25.152000427246094 0.8159999847412109,-25.152000427246094 C0.8159999847412109,-25.152000427246094 0.8159999847412109,-19.759000778198242 0.8159999847412109,-19.759000778198242 C0.8159999847412109,-19.759000778198242 0.8569999933242798,-19.759000778198242 0.8569999933242798,-19.759000778198242 C0.8569999933242798,-19.759000778198242 4.11899995803833,-23.520000457763672 4.11899995803833,-23.520000457763672 C4.11899995803833,-23.520000457763672 4.159999847412109,-23.520000457763672 4.159999847412109,-23.520000457763672 C4.159999847412109,-23.520000457763672 4.159999847412109,0 4.159999847412109,0 C4.159999847412109,0 8.8100004196167,0 8.8100004196167,0 C8.8100004196167,0 8.8100004196167,-30.72599983215332 8.8100004196167,-30.72599983215332 C8.8100004196167,-30.72599983215332 5.0980000495910645,-30.72599983215332 5.0980000495910645,-30.72599983215332z"></path></g></g></g><defs><clipPath id="animationMask_IYBOkskni7"><rect width="800" height="125" x="0" y="0"></rect></clipPath></defs>
</svg>
