<svg xmlns="http://www.w3.org/2000/svg" viewBox="0 0 800 125" width="800" height="125" style="width: 100%; height: 100%; transform: translate3d(0px, 0px, 0px);" preserveAspectRatio="xMidYMid meet"><g clip-path="url(#animationMask_9P0otxHcXm)"><g style="display: block;" transform="matrix(1,0,0,1,0,0)" opacity="1"><rect width="800" height="125" fill="#40ae49"></rect></g><g style="display: block;" transform="matrix(0.3269531726837158,0,0,0.3269531726837158,584.4142456054688,23.96918296813965)" opacity="1"></g><g style="display: block;" transform="matrix(0.9999961256980896,0,0,0.9999961256980896,580.9602661132812,-54.9992561340332)" opacity="1"><g opacity="1" transform="matrix(1,0,0,1,74.1969985961914,132.93099975585938)"><path fill="rgb(255,255,255)" fill-opacity="1" d=" M2.744999885559082,-7.192999839782715 C2.9719998836517334,-7.192999839782715 3.1549999713897705,-7.006999969482422 3.1549999713897705,-6.78000020980835 C3.1549999713897705,-6.78000020980835 3.1549999713897705,6.781000137329102 3.1549999713897705,6.781000137329102 C3.1549999713897705,7.011000156402588 2.9719998836517334,7.192999839782715 2.744999885559082,7.192999839782715 C2.744999885559082,7.192999839782715 -2.743000030517578,7.192999839782715 -2.743000030517578,7.192999839782715 C-2.9709999561309814,7.192999839782715 -3.1549999713897705,7.011000156402588 -3.1549999713897705,6.781000137329102 C-3.1549999713897705,6.781000137329102 -3.1549999713897705,-6.78000020980835 -3.1549999713897705,-6.78000020980835 C-3.1549999713897705,-7.006999969482422 -2.9709999561309814,-7.192999839782715 -2.743000030517578,-7.192999839782715 C-2.743000030517578,-7.192999839782715 2.744999885559082,-7.192999839782715 2.744999885559082,-7.192999839782715z"></path></g><g opacity="1" transform="matrix(1,0,0,1,91.98999786376953,149.125)"><path fill="rgb(255,255,255)" fill-opacity="1" d=" M45.215999603271484,-3.180000066757202 C45.215999603271484,-3.180000066757202 -45.21699905395508,-3.180000066757202 -45.21699905395508,-3.180000066757202 C-45.44300079345703,-3.180000066757202 -45.63100051879883,-2.9860000610351562 -45.63100051879883,-2.755000114440918 C-45.63100051879883,-2.755000114440918 -45.63100051879883,2.7730000019073486 -45.63100051879883,2.7730000019073486 C-45.63100051879883,2.999000072479248 -45.44300079345703,3.180000066757202 -45.21699905395508,3.180000066757202 C-45.21699905395508,3.180000066757202 45.215999603271484,3.180000066757202 45.215999603271484,3.180000066757202 C45.43899917602539,3.180000066757202 45.63100051879883,2.999000072479248 45.63100051879883,2.7730000019073486 C45.63100051879883,2.7730000019073486 45.63100051879883,-2.755000114440918 45.63100051879883,-2.755000114440918 C45.63100051879883,-2.9860000610351562 45.43899917602539,-3.180000066757202 45.215999603271484,-3.180000066757202z"></path></g><g opacity="1" transform="matrix(1,0,0,1,91.98999786376953,160.11099243164062)"><path fill="rgb(255,255,255)" fill-opacity="1" d=" M45.215999603271484,-3.180000066757202 C45.215999603271484,-3.180000066757202 -45.21699905395508,-3.180000066757202 -45.21699905395508,-3.180000066757202 C-45.44300079345703,-3.180000066757202 -45.63100051879883,-2.996999979019165 -45.63100051879883,-2.7720000743865967 C-45.63100051879883,-2.7720000743865967 -45.63100051879883,2.7709999084472656 -45.63100051879883,2.7709999084472656 C-45.63100051879883,2.993000030517578 -45.44300079345703,3.180000066757202 -45.21699905395508,3.180000066757202 C-45.21699905395508,3.180000066757202 45.215999603271484,3.180000066757202 45.215999603271484,3.180000066757202 C45.43899917602539,3.180000066757202 45.63100051879883,2.993000030517578 45.63100051879883,2.7709999084472656 C45.63100051879883,2.7709999084472656 45.63100051879883,-2.7720000743865967 45.63100051879883,-2.7720000743865967 C45.63100051879883,-2.996999979019165 45.43899917602539,-3.180000066757202 45.215999603271484,-3.180000066757202z"></path></g><g opacity="1" transform="matrix(1,0,0,1,120.03399658203125,111.84600067138672)"><path fill="rgb(255,255,255)" fill-opacity="1" d=" M-0.035999998450279236,0.4440000057220459 C-1.1660000085830688,-0.4399999976158142 -4.183000087738037,-2.503000020980835 -7.860000133514404,-2.503000020980835 C-10.48799991607666,-2.503000020980835 -12.932999610900879,-1.468000054359436 -15.121000289916992,0.5820000171661377 C-15.276000022888184,0.7289999723434448 -15.36299991607666,0.9330000281333923 -15.36299991607666,1.149999976158142 C-15.36299991607666,1.149999976158142 -15.36299991607666,1.6430000066757202 -15.36299991607666,1.6430000066757202 C-15.36299991607666,1.8849999904632568 -15.282999992370605,2.1110000610351562 -15.104999542236328,2.259999990463257 C-14.907999992370605,2.4089999198913574 -14.70300006866455,2.4660000801086426 -14.468000411987305,2.4100000858306885 C-14.414999961853027,2.4030001163482666 -14.35099983215332,2.385999917984009 -14.29800033569336,2.367000102996826 C-14.130999565124512,2.308000087738037 -13.975000381469727,2.2070000171661377 -13.847000122070312,2.0789999961853027 C-13.371999740600586,1.7599999904632568 -12.07800006866455,1.3259999752044678 -10.225000381469727,1.3259999752044678 C-8.309000015258789,1.3259999752044678 -4.545000076293945,0.2770000100135803 -0.9070000052452087,3.6679999828338623 C-0.9070000052452087,3.6679999828338623 -0.8220000267028809,3.743000030517578 -0.8220000267028809,3.743000030517578 C-0.6179999709129333,3.953000068664551 -0.33500000834465027,4.070000171661377 -0.035999998450279236,4.070000171661377 C0.24899999797344208,4.070000171661377 0.5429999828338623,3.9509999752044678 0.7279999852180481,3.75 C0.7279999852180481,3.75 0.8029999732971191,3.674999952316284 0.8029999732971191,3.674999952316284 C4.460999965667725,0.2770000100135803 8.218999862670898,1.3259999752044678 10.133999824523926,1.3259999752044678 C12,1.3259999752044678 13.288999557495117,1.7599999904632568 13.763999938964844,2.0789999961853027 C13.895000457763672,2.2070000171661377 14.053999900817871,2.309000015258789 14.263999938964844,2.384999990463257 C14.343999862670898,2.4089999198913574 14.576000213623047,2.4560000896453857 14.795000076293945,2.4019999504089355 C15.130000114440918,2.306999921798706 15.36299991607666,2.00600004196167 15.36299991607666,1.656000018119812 C15.36299991607666,1.656000018119812 15.36299991607666,1.2200000286102295 15.36299991607666,1.2200000286102295 C15.36299991607666,1.0130000114440918 15.27400016784668,0.8040000200271606 15.121000289916992,0.6610000133514404 C12.911999702453613,-1.4450000524520874 10.440999984741211,-2.507999897003174 7.769999980926514,-2.507999897003174 C4.126999855041504,-2.507999897003174 1.1260000467300415,-0.47699999809265137 -0.035999998450279236,0.4440000057220459z"></path></g><g opacity="1" transform="matrix(1,0,0,1,123.60099792480469,77.78700256347656)"><path fill="rgb(255,255,255)" fill-opacity="1" d=" M-9.614999771118164,-1.715999960899353 C-9.807000160217285,-1.6269999742507935 -9.946999549865723,-1.4509999752044678 -10.010000228881836,-1.2389999628067017 C-10.010000228881836,-1.2389999628067017 -10.10099983215332,-0.9380000233650208 -10.10099983215332,-0.9380000233650208 C-10.168999671936035,-0.699999988079071 -10.12600040435791,-0.44999998807907104 -9.982999801635742,-0.2590000033378601 C-9.843000411987305,-0.07500000298023224 -9.642999649047852,0.035999998450279236 -9.42300033569336,0.04600000008940697 C-9.380999565124512,0.050999999046325684 -9.340999603271484,0.061000000685453415 -9.3100004196167,0.050999999046325684 C-9.152999877929688,0.04600000008940697 -9.01200008392334,0.012000000104308128 -8.873000144958496,-0.061000000685453415 C-8.793000221252441,-0.07699999958276749 -8.625,-0.12200000137090683 -8.324000358581543,-0.12200000137090683 C-7.920000076293945,-0.12200000137090683 -3.874000072479248,-1.3860000371932983 -1.4639999866485596,2.7100000381469727 C-1.4639999866485596,2.7100000381469727 -1.4329999685287476,2.7690000534057617 -1.4329999685287476,2.7690000534057617 C-1.3020000457763672,3.00600004196167 -1.097000002861023,3.1689999103546143 -0.8550000190734863,3.2320001125335693 C-0.7839999794960022,3.255000114440918 -0.6499999761581421,3.2769999504089355 -0.5669999718666077,3.2769999504089355 C-0.39899998903274536,3.2769999504089355 -0.23100000619888306,3.2330000400543213 -0.11100000143051147,3.1649999618530273 C-0.11100000143051147,3.1649999618530273 -0.050999999046325684,3.134999990463257 -0.050999999046325684,3.134999990463257 C1.2680000066757202,2.4760000705718994 2.2339999675750732,3.5239999294281006 3.5829999446868896,3.5239999294281006 C5.868000030517578,3.5239999294281006 7.360000133514404,4.455999851226807 7.708000183105469,4.84499979019165 C7.7789998054504395,4.97599983215332 7.88700008392334,5.091000080108643 8.010000228881836,5.181000232696533 C8.086999893188477,5.224999904632568 8.222999572753906,5.294000148773193 8.303999900817871,5.322999954223633 C8.345000267028809,5.333000183105469 8.392000198364258,5.339000225067139 8.437999725341797,5.3420000076293945 C8.463000297546387,5.3470001220703125 8.491999626159668,5.3470001220703125 8.519000053405762,5.3470001220703125 C8.642000198364258,5.3470001220703125 8.76099967956543,5.315999984741211 8.876999855041504,5.257999897003174 C9.062000274658203,5.164000034332275 9.201000213623047,4.994999885559082 9.26099967956543,4.794000148773193 C9.26099967956543,4.794000148773193 9.336999893188477,4.5269999504089355 9.336999893188477,4.5269999504089355 C9.359999656677246,4.460000038146973 9.369000434875488,4.386000156402588 9.369000434875488,4.307000160217285 C9.369000434875488,4.165999889373779 9.333000183105469,4.0289998054504395 9.262999534606934,3.9200000762939453 C7.507999897003174,0.8700000047683716 4.959000110626221,0.23199999332427979 3.128999948501587,0.23199999332427979 C1.7669999599456787,0.23199999332427979 0.5759999752044678,0.5860000252723694 -0.125,0.8429999947547913 C-0.9539999961853027,-0.2720000147819519 -3.0480000972747803,-2.5739998817443848 -6.224999904632568,-2.5739998817443848 C-7.3420000076293945,-2.5739998817443848 -8.479000091552734,-2.2869999408721924 -9.614999771118164,-1.715999960899353z"></path></g><g opacity="1" transform="matrix(1,0,0,1,108.03700256347656,87.94100189208984)"><path fill="rgb(255,255,255)" fill-opacity="1" d=" M-12.758999824523926,1.593999981880188 C-12.758999824523926,1.593999981880188 -12.734000205993652,2 -12.734000205993652,2 C-12.720999717712402,2.255000114440918 -12.588000297546387,2.4760000705718994 -12.371999740600586,2.6110000610351562 C-12.194000244140625,2.7230000495910645 -11.96500015258789,2.76200008392334 -11.762999534606934,2.7019999027252197 C-11.718999862670898,2.693000078201294 -11.670000076293945,2.674999952316284 -11.630999565124512,2.6600000858306885 C-11.475000381469727,2.5969998836517334 -11.343000411987305,2.496999979019165 -11.239999771118164,2.371999979019165 C-10.855999946594238,2.0940001010894775 -9.618000030517578,1.590000033378601 -7.791999816894531,1.590000033378601 C-6.035999774932861,1.590000033378601 -3.36299991607666,1.121000051498413 -0.640999972820282,3.3570001125335693 C-0.640999972820282,3.3570001125335693 -0.578000009059906,3.421999931335449 -0.578000009059906,3.421999931335449 C-0.3840000033378601,3.5899999141693115 -0.1340000033378601,3.684000015258789 0.11999999731779099,3.684000015258789 C0.11999999731779099,3.684000015258789 0.18700000643730164,3.684000015258789 0.18700000643730164,3.684000015258789 C0.47099998593330383,3.6630001068115234 0.7350000143051147,3.5309998989105225 0.8960000276565552,3.3440001010894775 C0.8960000276565552,3.3440001010894775 0.9559999704360962,3.2750000953674316 0.9559999704360962,3.2750000953674316 C3.9700000286102295,0.08500000089406967 7.2179999351501465,0.5479999780654907 8.885000228881836,0.5479999780654907 C10.072999954223633,0.5479999780654907 10.914999961853027,0.7929999828338623 11.241999626159668,0.9789999723434448 C11.366999626159668,1.0859999656677246 11.520999908447266,1.1710000038146973 11.713000297546387,1.2239999771118164 C11.767000198364258,1.2369999885559082 11.901000022888184,1.2599999904632568 12.043999671936035,1.2450000047683716 C12.102999687194824,1.2389999628067017 12.175999641418457,1.2170000076293945 12.234000205993652,1.1979999542236328 C12.557000160217285,1.0859999656677246 12.769000053405762,0.7720000147819519 12.746999740600586,0.421999990940094 C12.746999740600586,0.421999990940094 12.72599983215332,0.0689999982714653 12.72599983215332,0.0689999982714653 C12.713000297546387,-0.1420000046491623 12.61400032043457,-0.3330000042915344 12.45300006866455,-0.4699999988079071 C10.654000282287598,-1.9830000400543213 8.713000297546387,-2.746000051498413 6.669000148773193,-2.746000051498413 C3.48799991607666,-2.746000051498413 0.9509999752044678,-0.8679999709129333 -0.0989999994635582,0.05299999937415123 C-1.0609999895095825,-0.6019999980926514 -3.3949999809265137,-1.9490000009536743 -6.132999897003174,-1.9490000009536743 C-8.538999557495117,-1.9490000009536743 -10.696000099182129,-0.9490000009536743 -12.548999786376953,1.0160000324249268 C-12.694999694824219,1.1710000038146973 -12.767999649047852,1.3819999694824219 -12.758999824523926,1.593999981880188z"></path></g><g opacity="1" transform="matrix(1,0,0,1,73.10399627685547,97.99299621582031)"><path fill="rgb(255,255,255)" fill-opacity="1" d=" M-23.59000015258789,-2.134999990463257 C-23.59000015258789,-7.550000190734863 -19.198999404907227,-11.939000129699707 -13.78600025177002,-11.939000129699707 C-13.574000358581543,-11.939000129699707 -13.366999626159668,-11.920000076293945 -13.157999992370605,-11.907999992370605 C-12.640999794006348,-18.76099967956543 -6.931000232696533,-24.166000366210938 0.0560000017285347,-24.166000366210938 C7.382999897003174,-24.166000366210938 13.321999549865723,-18.22800064086914 13.321999549865723,-10.902000427246094 C13.321999549865723,-8.826000213623047 12.831000328063965,-6.869999885559082 11.980999946594238,-5.119999885559082 C18.6200008392334,-3.6500000953674316 23.59000015258789,2.26200008392334 23.59000015258789,9.342000007629395 C23.59000015258789,17.527999877929688 16.95199966430664,24.166000366210938 8.765000343322754,24.166000366210938 C8.168000221252441,24.166000366210938 -11.017000198364258,24.051000595092773 -11.017000198364258,24.051000595092773 C-16.81599998474121,24.048999786376953 -21.514999389648438,19.351999282836914 -21.514999389648438,13.553999900817871 C-21.514999389648438,10.769000053405762 -20.42300033569336,8.246999740600586 -18.652999877929688,6.368000030517578 C-21.600000381469727,4.677000045776367 -23.59000015258789,1.5069999694824219 -23.59000015258789,-2.134999990463257z"></path></g></g><g style="display: block;" transform="matrix(1.0000029802322388,0,0,1.0000029802322388,148.87521362304688,54.981266021728516)" opacity="1"><g opacity="1" transform="matrix(1,0,0,1,0,0)"><path fill="rgb(255,255,255)" fill-opacity="1" d=" M55.15299987792969,12.22599983215332 C55.15299987792969,12.22599983215332 47.49599838256836,12.22599983215332 47.49599838256836,12.22599983215332 C47.49599838256836,12.22599983215332 47.49599838256836,45 47.49599838256836,45 C47.49599838256836,45 55.15299987792969,45 55.15299987792969,45 C60.46099853515625,45 62.33100128173828,41.229000091552734 62.33100128173828,36.20199966430664 C62.33100128173828,36.20199966430664 62.33100128173828,21.023000717163086 62.33100128173828,21.023000717163086 C62.33100128173828,15.946999549865723 60.46099853515625,12.22599983215332 55.15299987792969,12.22599983215332z M52.45500183105469,40.50400161743164 C52.45500183105469,40.50400161743164 52.45500183105469,16.72100067138672 52.45500183105469,16.72100067138672 C52.45500183105469,16.72100067138672 54.54399871826172,16.72100067138672 54.54399871826172,16.72100067138672 C56.5890007019043,16.72100067138672 57.37200164794922,18.073999404907227 57.37200164794922,20.007999420166016 C57.37200164794922,20.007999420166016 57.37200164794922,37.16899871826172 57.37200164794922,37.16899871826172 C57.37200164794922,39.1510009765625 56.5890007019043,40.50400161743164 54.54399871826172,40.50400161743164 C54.54399871826172,40.50400161743164 52.45500183105469,40.50400161743164 52.45500183105469,40.50400161743164z"></path></g><g opacity="1" transform="matrix(1,0,0,1,0,0)"><path fill="rgb(255,255,255)" fill-opacity="1" d=" M41.233001708984375,45 C41.233001708984375,45 45.58399963378906,45 45.58399963378906,45 C45.58399963378906,45 45.58399963378906,12.22599983215332 45.58399963378906,12.22599983215332 C45.58399963378906,12.22599983215332 41.45100021362305,12.22599983215332 41.45100021362305,12.22599983215332 C41.45100021362305,12.22599983215332 41.45100021362305,31.030000686645508 41.45100021362305,31.030000686645508 C41.45100021362305,31.030000686645508 36.099998474121094,12.22599983215332 36.099998474121094,12.22599983215332 C36.099998474121094,12.22599983215332 31.226999282836914,12.22599983215332 31.226999282836914,12.22599983215332 C31.226999282836914,12.22599983215332 31.226999282836914,45 31.226999282836914,45 C31.226999282836914,45 35.40399932861328,45 35.40399932861328,45 C35.40399932861328,45 35.40399932861328,24.406999588012695 35.40399932861328,24.406999588012695 C35.40399932861328,24.406999588012695 41.233001708984375,45 41.233001708984375,45z"></path></g><g opacity="1" transform="matrix(1,0,0,1,0,0)"><path fill="rgb(255,255,255)" fill-opacity="1" d=" M21.226999282836914,21.45800018310547 C21.226999282836914,21.45800018310547 21.270999908447266,21.45800018310547 21.270999908447266,21.45800018310547 C21.270999908447266,21.45800018310547 23.22800064086914,34.606998443603516 23.22800064086914,34.606998443603516 C23.22800064086914,34.606998443603516 19.268999099731445,34.606998443603516 19.268999099731445,34.606998443603516 C19.268999099731445,34.606998443603516 21.226999282836914,21.45800018310547 21.226999282836914,21.45800018310547z M17.746999740600586,45 C17.746999740600586,45 18.617000579833984,39.00600051879883 18.617000579833984,39.00600051879883 C18.617000579833984,39.00600051879883 23.881000518798828,39.00600051879883 23.881000518798828,39.00600051879883 C23.881000518798828,39.00600051879883 24.795000076293945,45 24.795000076293945,45 C24.795000076293945,45 29.885000228881836,45 29.885000228881836,45 C29.885000228881836,45 24.27199935913086,12.22599983215332 24.27199935913086,12.22599983215332 C24.27199935913086,12.22599983215332 18.617000579833984,12.22599983215332 18.617000579833984,12.22599983215332 C18.617000579833984,12.22599983215332 13.04800033569336,45 13.04800033569336,45 C13.04800033569336,45 17.746999740600586,45 17.746999740600586,45z"></path></g><g opacity="1" transform="matrix(1,0,0,1,0,0)"><path fill="rgb(255,255,255)" fill-opacity="1" d=" M1.0880000591278076,45 C1.0880000591278076,45 11.96399974822998,45 11.96399974822998,45 C11.96399974822998,45 11.96399974822998,40.50400161743164 11.96399974822998,40.50400161743164 C11.96399974822998,40.50400161743164 6.046999931335449,40.50400161743164 6.046999931335449,40.50400161743164 C6.046999931335449,40.50400161743164 6.046999931335449,12.22599983215332 6.046999931335449,12.22599983215332 C6.046999931335449,12.22599983215332 1.0880000591278076,12.22599983215332 1.0880000591278076,12.22599983215332 C1.0880000591278076,12.22599983215332 1.0880000591278076,45 1.0880000591278076,45z"></path></g><g opacity="1" transform="matrix(1,0,0,1,0,0)"><path fill="rgb(255,255,255)" fill-opacity="1" d=" M77.83999633789062,0 C77.83999633789062,0 82.19100189208984,0 82.19100189208984,0 C82.19100189208984,0 82.19100189208984,-32.77399826049805 82.19100189208984,-32.77399826049805 C82.19100189208984,-32.77399826049805 78.05699920654297,-32.77399826049805 78.05699920654297,-32.77399826049805 C78.05699920654297,-32.77399826049805 78.05699920654297,-13.970000267028809 78.05699920654297,-13.970000267028809 C78.05699920654297,-13.970000267028809 72.70600128173828,-32.77399826049805 72.70600128173828,-32.77399826049805 C72.70600128173828,-32.77399826049805 67.83399963378906,-32.77399826049805 67.83399963378906,-32.77399826049805 C67.83399963378906,-32.77399826049805 67.83399963378906,0 67.83399963378906,0 C67.83399963378906,0 72.01000213623047,0 72.01000213623047,0 C72.01000213623047,0 72.01000213623047,-20.593000411987305 72.01000213623047,-20.593000411987305 C72.01000213623047,-20.593000411987305 77.83999633789062,0 77.83999633789062,0z"></path></g><g opacity="1" transform="matrix(1,0,0,1,0,0)"><path fill="rgb(255,255,255)" fill-opacity="1" d=" M58.481998443603516,0.3869999945163727 C63.74599838256836,0.3869999945163727 66.00900268554688,-3.382999897003174 66.00900268554688,-8.458999633789062 C66.00900268554688,-8.458999633789062 66.00900268554688,-24.315000534057617 66.00900268554688,-24.315000534057617 C66.00900268554688,-29.43899917602539 63.74599838256836,-33.1609992980957 58.481998443603516,-33.1609992980957 C53.26100158691406,-33.1609992980957 50.999000549316406,-29.43899917602539 50.999000549316406,-24.315000534057617 C50.999000549316406,-24.315000534057617 50.999000549316406,-8.458999633789062 50.999000549316406,-8.458999633789062 C50.999000549316406,-3.382999897003174 53.26100158691406,0.3869999945163727 58.481998443603516,0.3869999945163727z M58.481998443603516,-4.205999851226807 C56.742000579833984,-4.205999851226807 55.95899963378906,-5.60699987411499 55.95899963378906,-7.589000225067139 C55.95899963378906,-7.589000225067139 55.95899963378906,-25.184999465942383 55.95899963378906,-25.184999465942383 C55.95899963378906,-27.16699981689453 56.742000579833984,-28.569000244140625 58.481998443603516,-28.569000244140625 C60.26599884033203,-28.569000244140625 61.04899978637695,-27.16699981689453 61.04899978637695,-25.184999465942383 C61.04899978637695,-25.184999465942383 61.04899978637695,-7.589000225067139 61.04899978637695,-7.589000225067139 C61.04899978637695,-5.60699987411499 60.26599884033203,-4.205999851226807 58.481998443603516,-4.205999851226807z"></path></g><g opacity="1" transform="matrix(1,0,0,1,0,0)"><path fill="rgb(255,255,255)" fill-opacity="1" d=" M33.374000549316406,0 C33.374000549316406,0 45.207000732421875,0 45.207000732421875,0 C45.207000732421875,0 45.207000732421875,-4.495999813079834 45.207000732421875,-4.495999813079834 C45.207000732421875,-4.495999813079834 38.33399963378906,-4.495999813079834 38.33399963378906,-4.495999813079834 C38.33399963378906,-4.495999813079834 38.33399963378906,-14.454000473022461 38.33399963378906,-14.454000473022461 C38.33399963378906,-14.454000473022461 43.25,-14.454000473022461 43.25,-14.454000473022461 C43.25,-14.454000473022461 43.25,-18.900999069213867 43.25,-18.900999069213867 C43.25,-18.900999069213867 38.33399963378906,-18.900999069213867 38.33399963378906,-18.900999069213867 C38.33399963378906,-18.900999069213867 38.33399963378906,-28.27899932861328 38.33399963378906,-28.27899932861328 C38.33399963378906,-28.27899932861328 45.207000732421875,-28.27899932861328 45.207000732421875,-28.27899932861328 C45.207000732421875,-28.27899932861328 45.207000732421875,-32.77399826049805 45.207000732421875,-32.77399826049805 C45.207000732421875,-32.77399826049805 33.374000549316406,-32.77399826049805 33.374000549316406,-32.77399826049805 C33.374000549316406,-32.77399826049805 33.374000549316406,0 33.374000549316406,0z"></path></g><g opacity="1" transform="matrix(1,0,0,1,0,0)"><path fill="rgb(255,255,255)" fill-opacity="1" d=" M20.327999114990234,0 C20.327999114990234,0 25.288000106811523,0 25.288000106811523,0 C25.288000106811523,0 25.288000106811523,-14.454000473022461 25.288000106811523,-14.454000473022461 C25.288000106811523,-14.454000473022461 30.246999740600586,-14.454000473022461 30.246999740600586,-14.454000473022461 C30.246999740600586,-14.454000473022461 30.246999740600586,-18.900999069213867 30.246999740600586,-18.900999069213867 C30.246999740600586,-18.900999069213867 25.288000106811523,-18.900999069213867 25.288000106811523,-18.900999069213867 C25.288000106811523,-18.900999069213867 25.288000106811523,-28.27899932861328 25.288000106811523,-28.27899932861328 C25.288000106811523,-28.27899932861328 31.944000244140625,-28.27899932861328 31.944000244140625,-28.27899932861328 C31.944000244140625,-28.27899932861328 31.944000244140625,-32.77399826049805 31.944000244140625,-32.77399826049805 C31.944000244140625,-32.77399826049805 20.327999114990234,-32.77399826049805 20.327999114990234,-32.77399826049805 C20.327999114990234,-32.77399826049805 20.327999114990234,0 20.327999114990234,0z"></path></g><g opacity="1" transform="matrix(1,0,0,1,0,0)"><path fill="rgb(255,255,255)" fill-opacity="1" d=" M13.420999526977539,0 C13.420999526977539,0 18.3799991607666,0 18.3799991607666,0 C18.3799991607666,0 18.3799991607666,-32.77399826049805 18.3799991607666,-32.77399826049805 C18.3799991607666,-32.77399826049805 13.420999526977539,-32.77399826049805 13.420999526977539,-32.77399826049805 C13.420999526977539,-32.77399826049805 13.420999526977539,0 13.420999526977539,0z"></path></g><g opacity="1" transform="matrix(1,0,0,1,0,0)"><path fill="rgb(255,255,255)" fill-opacity="1" d=" M1.0880000591278076,0 C1.0880000591278076,0 11.96399974822998,0 11.96399974822998,0 C11.96399974822998,0 11.96399974822998,-4.495999813079834 11.96399974822998,-4.495999813079834 C11.96399974822998,-4.495999813079834 6.046999931335449,-4.495999813079834 6.046999931335449,-4.495999813079834 C6.046999931335449,-4.495999813079834 6.046999931335449,-32.77399826049805 6.046999931335449,-32.77399826049805 C6.046999931335449,-32.77399826049805 1.0880000591278076,-32.77399826049805 1.0880000591278076,-32.77399826049805 C1.0880000591278076,-32.77399826049805 1.0880000591278076,0 1.0880000591278076,0z"></path></g></g><g style="display: block;" transform="matrix(2.5647878646850586,0,0,2.5647878646850586,58.000431060791016,99.76834869384766)" opacity="1"><g opacity="1" transform="matrix(1,0,0,1,0,0)"><path fill="rgb(255,255,255)" fill-opacity="1" d=" M19.190000534057617,-20.982999801635742 C17.354999542236328,-20.982999801635742 16.009000778198242,-20.257999420166016 15.274999618530273,-18.85300064086914 C15.274999618530273,-18.85300064086914 15.234000205993652,-18.85300064086914 15.234000205993652,-18.85300064086914 C15.234000205993652,-18.85300064086914 15.234000205993652,-26.51099967956543 15.234000205993652,-26.51099967956543 C15.234000205993652,-26.51099967956543 23.22800064086914,-26.51099967956543 23.22800064086914,-26.51099967956543 C23.22800064086914,-26.51099967956543 23.22800064086914,-30.72599983215332 23.22800064086914,-30.72599983215332 C23.22800064086914,-30.72599983215332 10.991999626159668,-30.72599983215332 10.991999626159668,-30.72599983215332 C10.991999626159668,-30.72599983215332 10.991999626159668,-13.413999557495117 10.991999626159668,-13.413999557495117 C10.991999626159668,-13.413999557495117 15.234000205993652,-13.413999557495117 15.234000205993652,-13.413999557495117 C15.234000205993652,-13.413999557495117 15.234000205993652,-14.093999862670898 15.234000205993652,-14.093999862670898 C15.234000205993652,-15.906999588012695 15.968000411987305,-16.90399932861328 17.273000717163086,-16.90399932861328 C18.701000213623047,-16.90399932861328 19.27199935913086,-15.815999984741211 19.27199935913086,-14.138999938964844 C19.27199935913086,-14.138999938964844 19.27199935913086,-6.706999778747559 19.27199935913086,-6.706999778747559 C19.27199935913086,-5.076000213623047 18.742000579833984,-3.943000078201294 17.31399917602539,-3.943000078201294 C15.722999572753906,-3.943000078201294 15.152000427246094,-5.120999813079834 15.152000427246094,-6.934000015258789 C15.152000427246094,-6.934000015258789 15.152000427246094,-10.78600025177002 15.152000427246094,-10.78600025177002 C15.152000427246094,-10.78600025177002 10.90999984741211,-10.78600025177002 10.90999984741211,-10.78600025177002 C10.90999984741211,-10.78600025177002 10.90999984741211,-7.296000003814697 10.90999984741211,-7.296000003814697 C10.90999984741211,-2.628000020980835 12.583000183105469,0.3630000054836273 17.31399917602539,0.3630000054836273 C22.003999710083008,0.3630000054836273 23.92099952697754,-2.4019999504089355 23.92099952697754,-6.6620001792907715 C23.92099952697754,-6.6620001792907715 23.92099952697754,-14.1850004196167 23.92099952697754,-14.1850004196167 C23.92099952697754,-19.034000396728516 21.67799949645996,-20.982999801635742 19.190000534057617,-20.982999801635742z"></path></g><g opacity="1" transform="matrix(1,0,0,1,0,0)"><path fill="rgb(255,255,255)" fill-opacity="1" d=" M5.0980000495910645,-30.72599983215332 C5.0980000495910645,-30.72599983215332 0.8159999847412109,-25.152000427246094 0.8159999847412109,-25.152000427246094 C0.8159999847412109,-25.152000427246094 0.8159999847412109,-19.759000778198242 0.8159999847412109,-19.759000778198242 C0.8159999847412109,-19.759000778198242 0.8569999933242798,-19.759000778198242 0.8569999933242798,-19.759000778198242 C0.8569999933242798,-19.759000778198242 4.11899995803833,-23.520000457763672 4.11899995803833,-23.520000457763672 C4.11899995803833,-23.520000457763672 4.159999847412109,-23.520000457763672 4.159999847412109,-23.520000457763672 C4.159999847412109,-23.520000457763672 4.159999847412109,0 4.159999847412109,0 C4.159999847412109,0 8.8100004196167,0 8.8100004196167,0 C8.8100004196167,0 8.8100004196167,-30.72599983215332 8.8100004196167,-30.72599983215332 C8.8100004196167,-30.72599983215332 5.0980000495910645,-30.72599983215332 5.0980000495910645,-30.72599983215332z"></path></g></g></g><defs><clipPath id="animationMask_9P0otxHcXm"><rect width="800" height="125" x="0" y="0"></rect></clipPath></defs></svg>