<svg xmlns="http://www.w3.org/2000/svg" viewBox="0 0 800 125" width="800" height="125" style="width: 100%; height: 100%; transform: translate3d(0px, 0px, 0px);" preserveAspectRatio="xMidYMid meet"><g clip-path="url(#animationMask_WAJ2ItwpRP)"><g style="display: block;" transform="matrix(1,0,0,1,0,0)" opacity="1"><rect width="800" height="125" fill="#bf8b2e"></rect></g><g style="display: block;" transform="matrix(0.014917257241904736,0,0,0.014917257241904736,392.3801574707031,60.78942108154297)" opacity="1"></g><g style="display: block;" transform="matrix(0.10001842677593231,0,0,0.10001842677593231,656.2578125,62.75023651123047)" opacity="1"><path stroke-linecap="butt" stroke-linejoin="miter" fill-opacity="0" stroke-miterlimit="4" stroke="rgb(255,255,255)" stroke-opacity="1" stroke-width="87" d=" M-164.08200073242188,121.927001953125 C-215,172.5 -275.3840026855469,255.07400512695312 -417.7080078125,251.17300415039062 C-737.97998046875,242.3820037841797 -741.0560302734375,-243.29200744628906 -404.3450012207031,-243.29200744628906 C-309.4309997558594,-243.29200744628906 -189.7760009765625,-154.45599365234375 -69.27400207519531,-43.077999114990234 C-52.52000045776367,-27.604000091552734 11.746000289916992,35.74800109863281 28.503999710083008,51.233001708984375 C149.0050048828125,162.60699462890625 278.6610107421875,251.447998046875 373.5719909667969,251.447998046875 C710.2930297851562,251.447998046875 697.3309936523438,-255.02200317382812 376.9410095214844,-255.02200317382812 C209.86599731445312,-255.02200317382812 40.50899887084961,-78.1719970703125 40.50899887084961,-78.1719970703125 C40.50899887084961,-78.1719970703125 35.395999908447266,-73.17400360107422 25.875,-63.86899948120117"></path></g><g style="display: block;" transform="matrix(0.07401556521654129,-0.06869247555732727,0.06869247555732727,0.07401556521654129,640.0433959960938,74.5228042602539)" opacity="1"><g opacity="1" transform="matrix(-7.147189617156982,2.322262763977051,-2.322262763977051,-7.147189617156982,-12.852999687194824,-4.568999767303467)"><path fill="rgb(252,255,255)" fill-opacity="1" d=" M3.8116633892059326,13.341171264648438 C3.8116633892059326,13.341171264648438 -13.459625244140625,-3.3695881366729736 -13.459625244140625,-3.3695881366729736 C-13.459625244140625,-3.3695881366729736 9.647961616516113,-9.971583366394043 9.647961616516113,-9.971583366394043 C9.647961616516113,-9.971583366394043 3.8116633892059326,13.341171264648438 3.8116633892059326,13.341171264648438z"></path></g></g><g style="display: block;" transform="matrix(1.0000029802322388,0,0,1.0000029802322388,145.3748016357422,54.25004959106445)" opacity="1"><g opacity="1" transform="matrix(1,0,0,1,0,0)"><path fill="rgb(255,255,255)" fill-opacity="1" d=" M200.76699829101562,45 C200.76699829101562,45 205.1179962158203,45 205.1179962158203,45 C205.1179962158203,45 205.1179962158203,12.22599983215332 205.1179962158203,12.22599983215332 C205.1179962158203,12.22599983215332 200.98500061035156,12.22599983215332 200.98500061035156,12.22599983215332 C200.98500061035156,12.22599983215332 200.98500061035156,31.030000686645508 200.98500061035156,31.030000686645508 C200.98500061035156,31.030000686645508 195.63400268554688,12.22599983215332 195.63400268554688,12.22599983215332 C195.63400268554688,12.22599983215332 190.76100158691406,12.22599983215332 190.76100158691406,12.22599983215332 C190.76100158691406,12.22599983215332 190.76100158691406,45 190.76100158691406,45 C190.76100158691406,45 194.93800354003906,45 194.93800354003906,45 C194.93800354003906,45 194.93800354003906,24.406999588012695 194.93800354003906,24.406999588012695 C194.93800354003906,24.406999588012695 200.76699829101562,45 200.76699829101562,45z"></path></g><g opacity="1" transform="matrix(1,0,0,1,0,0)"><path fill="rgb(255,255,255)" fill-opacity="1" d=" M181.40899658203125,45.387001037597656 C186.67300415039062,45.387001037597656 188.93600463867188,41.617000579833984 188.93600463867188,36.54100036621094 C188.93600463867188,36.54100036621094 188.93600463867188,20.684999465942383 188.93600463867188,20.684999465942383 C188.93600463867188,15.560999870300293 186.67300415039062,11.83899974822998 181.40899658203125,11.83899974822998 C176.18800354003906,11.83899974822998 173.92599487304688,15.560999870300293 173.92599487304688,20.684999465942383 C173.92599487304688,20.684999465942383 173.92599487304688,36.54100036621094 173.92599487304688,36.54100036621094 C173.92599487304688,41.617000579833984 176.18800354003906,45.387001037597656 181.40899658203125,45.387001037597656z M181.40899658203125,40.79399871826172 C179.66900634765625,40.79399871826172 178.88600158691406,39.393001556396484 178.88600158691406,37.4109992980957 C178.88600158691406,37.4109992980957 178.88600158691406,19.815000534057617 178.88600158691406,19.815000534057617 C178.88600158691406,17.83300018310547 179.66900634765625,16.430999755859375 181.40899658203125,16.430999755859375 C183.1929931640625,16.430999755859375 183.9759979248047,17.83300018310547 183.9759979248047,19.815000534057617 C183.9759979248047,19.815000534057617 183.9759979248047,37.4109992980957 183.9759979248047,37.4109992980957 C183.9759979248047,39.393001556396484 183.1929931640625,40.79399871826172 181.40899658203125,40.79399871826172z"></path></g><g opacity="1" transform="matrix(1,0,0,1,0,0)"><path fill="rgb(255,255,255)" fill-opacity="1" d=" M167.0749969482422,45 C167.0749969482422,45 172.03500366210938,45 172.03500366210938,45 C172.03500366210938,45 172.03500366210938,12.22599983215332 172.03500366210938,12.22599983215332 C172.03500366210938,12.22599983215332 167.0749969482422,12.22599983215332 167.0749969482422,12.22599983215332 C167.0749969482422,12.22599983215332 167.0749969482422,45 167.0749969482422,45z"></path></g><g opacity="1" transform="matrix(1,0,0,1,0,0)"><path fill="rgb(255,255,255)" fill-opacity="1" d=" M152.4010009765625,16.72100067138672 C152.4010009765625,16.72100067138672 156.49099731445312,16.72100067138672 156.49099731445312,16.72100067138672 C156.49099731445312,16.72100067138672 156.49099731445312,45 156.49099731445312,45 C156.49099731445312,45 161.49400329589844,45 161.49400329589844,45 C161.49400329589844,45 161.49400329589844,16.72100067138672 161.49400329589844,16.72100067138672 C161.49400329589844,16.72100067138672 165.58299255371094,16.72100067138672 165.58299255371094,16.72100067138672 C165.58299255371094,16.72100067138672 165.58299255371094,12.22599983215332 165.58299255371094,12.22599983215332 C165.58299255371094,12.22599983215332 152.4010009765625,12.22599983215332 152.4010009765625,12.22599983215332 C152.4010009765625,12.22599983215332 152.4010009765625,16.72100067138672 152.4010009765625,16.72100067138672z"></path></g><g opacity="1" transform="matrix(1,0,0,1,0,0)"><path fill="rgb(255,255,255)" fill-opacity="1" d=" M144.093994140625,45.387001037597656 C149.35800170898438,45.387001037597656 151.09800720214844,41.90599822998047 151.09800720214844,37.21699905395508 C151.09800720214844,37.21699905395508 151.09800720214844,31.562000274658203 151.09800720214844,31.562000274658203 C151.09800720214844,31.562000274658203 146.57400512695312,31.562000274658203 146.57400512695312,31.562000274658203 C146.57400512695312,31.562000274658203 146.57400512695312,37.604000091552734 146.57400512695312,37.604000091552734 C146.57400512695312,39.53799819946289 145.96499633789062,40.79399871826172 144.18099975585938,40.79399871826172 C142.39700317382812,40.79399871826172 141.6580047607422,39.393001556396484 141.6580047607422,37.4109992980957 C141.6580047607422,37.4109992980957 141.6580047607422,19.815000534057617 141.6580047607422,19.815000534057617 C141.6580047607422,17.83300018310547 142.39700317382812,16.430999755859375 144.18099975585938,16.430999755859375 C145.96499633789062,16.430999755859375 146.57400512695312,17.591999053955078 146.57400512695312,19.621999740600586 C146.57400512695312,19.621999740600586 146.57400512695312,23.923999786376953 146.57400512695312,23.923999786376953 C146.57400512695312,23.923999786376953 151.09800720214844,23.923999786376953 151.09800720214844,23.923999786376953 C151.09800720214844,23.923999786376953 151.09800720214844,20.05699920654297 151.09800720214844,20.05699920654297 C151.09800720214844,15.222999572753906 149.5760040283203,11.83899974822998 144.093994140625,11.83899974822998 C138.8730010986328,11.83899974822998 136.697998046875,15.560999870300293 136.697998046875,20.684999465942383 C136.697998046875,20.684999465942383 136.697998046875,36.54100036621094 136.697998046875,36.54100036621094 C136.697998046875,41.617000579833984 138.8730010986328,45.387001037597656 144.093994140625,45.387001037597656z"></path></g><g opacity="1" transform="matrix(1,0,0,1,0,0)"><path fill="rgb(255,255,255)" fill-opacity="1" d=" M130.3300018310547,12.22599983215332 C130.3300018310547,12.22599983215332 130.3300018310547,37.555999755859375 130.3300018310547,37.555999755859375 C130.3300018310547,39.4900016784668 129.63400268554688,40.79399871826172 127.89399719238281,40.79399871826172 C126.15399932861328,40.79399871826172 125.45800018310547,39.4900016784668 125.45800018310547,37.555999755859375 C125.45800018310547,37.555999755859375 125.45800018310547,12.22599983215332 125.45800018310547,12.22599983215332 C125.45800018310547,12.22599983215332 120.49800109863281,12.22599983215332 120.49800109863281,12.22599983215332 C120.49800109863281,12.22599983215332 120.49800109863281,37.02399826049805 120.49800109863281,37.02399826049805 C120.49800109863281,42.099998474121094 122.6729965209961,45.387001037597656 127.89399719238281,45.387001037597656 C132.9409942626953,45.387001037597656 134.8990020751953,42.099998474121094 134.8990020751953,37.02399826049805 C134.8990020751953,37.02399826049805 134.8990020751953,12.22599983215332 134.8990020751953,12.22599983215332 C134.8990020751953,12.22599983215332 130.3300018310547,12.22599983215332 130.3300018310547,12.22599983215332z"></path></g><g opacity="1" transform="matrix(1,0,0,1,0,0)"><path fill="rgb(255,255,255)" fill-opacity="1" d=" M111.52400207519531,12.22599983215332 C111.52400207519531,12.22599983215332 103.86699676513672,12.22599983215332 103.86699676513672,12.22599983215332 C103.86699676513672,12.22599983215332 103.86699676513672,45 103.86699676513672,45 C103.86699676513672,45 111.52400207519531,45 111.52400207519531,45 C116.83200073242188,45 118.7020034790039,41.229000091552734 118.7020034790039,36.20199966430664 C118.7020034790039,36.20199966430664 118.7020034790039,21.023000717163086 118.7020034790039,21.023000717163086 C118.7020034790039,15.946999549865723 116.83200073242188,12.22599983215332 111.52400207519531,12.22599983215332z M108.82599639892578,40.50400161743164 C108.82599639892578,40.50400161743164 108.82599639892578,16.72100067138672 108.82599639892578,16.72100067138672 C108.82599639892578,16.72100067138672 110.91400146484375,16.72100067138672 110.91400146484375,16.72100067138672 C112.95899963378906,16.72100067138672 113.74199676513672,18.073999404907227 113.74199676513672,20.007999420166016 C113.74199676513672,20.007999420166016 113.74199676513672,37.16899871826172 113.74199676513672,37.16899871826172 C113.74199676513672,39.1510009765625 112.95899963378906,40.50400161743164 110.91400146484375,40.50400161743164 C110.91400146484375,40.50400161743164 108.82599639892578,40.50400161743164 108.82599639892578,40.50400161743164z"></path></g><g opacity="1" transform="matrix(1,0,0,1,0,0)"><path fill="rgb(255,255,255)" fill-opacity="1" d=" M94.51499938964844,45.387001037597656 C99.77899932861328,45.387001037597656 102.04100036621094,41.617000579833984 102.04100036621094,36.54100036621094 C102.04100036621094,36.54100036621094 102.04100036621094,20.684999465942383 102.04100036621094,20.684999465942383 C102.04100036621094,15.560999870300293 99.77899932861328,11.83899974822998 94.51499938964844,11.83899974822998 C89.29399871826172,11.83899974822998 87.03199768066406,15.560999870300293 87.03199768066406,20.684999465942383 C87.03199768066406,20.684999465942383 87.03199768066406,36.54100036621094 87.03199768066406,36.54100036621094 C87.03199768066406,41.617000579833984 89.29399871826172,45.387001037597656 94.51499938964844,45.387001037597656z M94.51499938964844,40.79399871826172 C92.7750015258789,40.79399871826172 91.99199676513672,39.393001556396484 91.99199676513672,37.4109992980957 C91.99199676513672,37.4109992980957 91.99199676513672,19.815000534057617 91.99199676513672,19.815000534057617 C91.99199676513672,17.83300018310547 92.7750015258789,16.430999755859375 94.51499938964844,16.430999755859375 C96.29900360107422,16.430999755859375 97.08200073242188,17.83300018310547 97.08200073242188,19.815000534057617 C97.08200073242188,19.815000534057617 97.08200073242188,37.4109992980957 97.08200073242188,37.4109992980957 C97.08200073242188,39.393001556396484 96.29900360107422,40.79399871826172 94.51499938964844,40.79399871826172z"></path></g><g opacity="1" transform="matrix(1,0,0,1,0,0)"><path fill="rgb(255,255,255)" fill-opacity="1" d=" M77.92900085449219,16.72100067138672 C79.6259994506836,16.72100067138672 80.36499786376953,17.590999603271484 80.36499786376953,19.3799991607666 C80.36499786376953,19.3799991607666 80.36499786376953,24.214000701904297 80.36499786376953,24.214000701904297 C80.36499786376953,25.95400047302246 79.6259994506836,26.92099952697754 77.92900085449219,26.92099952697754 C77.92900085449219,26.92099952697754 76.2760009765625,26.92099952697754 76.2760009765625,26.92099952697754 C76.2760009765625,26.92099952697754 76.2760009765625,16.72100067138672 76.2760009765625,16.72100067138672 C76.2760009765625,16.72100067138672 77.92900085449219,16.72100067138672 77.92900085449219,16.72100067138672z M80.93099975585938,45 C80.93099975585938,45 86.1520004272461,45 86.1520004272461,45 C86.1520004272461,45 81.40899658203125,30.111000061035156 81.40899658203125,30.111000061035156 C84.23699951171875,29.38599967956543 85.36799621582031,27.308000564575195 85.36799621582031,23.77899932861328 C85.36799621582031,23.77899932861328 85.36799621582031,19.572999954223633 85.36799621582031,19.572999954223633 C85.36799621582031,14.980999946594238 83.54100036621094,12.22599983215332 78.53800201416016,12.22599983215332 C78.53800201416016,12.22599983215332 71.31600189208984,12.22599983215332 71.31600189208984,12.22599983215332 C71.31600189208984,12.22599983215332 71.31600189208984,45 71.31600189208984,45 C71.31600189208984,45 76.2760009765625,45 76.2760009765625,45 C76.2760009765625,45 76.2760009765625,29.965999603271484 76.2760009765625,29.965999603271484 C76.2760009765625,29.965999603271484 80.93099975585938,45 80.93099975585938,45z"></path></g><g opacity="1" transform="matrix(1,0,0,1,0,0)"><path fill="rgb(255,255,255)" fill-opacity="1" d=" M62.31800079345703,16.72100067138672 C64.01499938964844,16.72100067138672 64.75399780273438,17.590999603271484 64.75399780273438,19.3799991607666 C64.75399780273438,19.3799991607666 64.75399780273438,26.92099952697754 64.75399780273438,26.92099952697754 C64.75399780273438,28.709999084472656 64.01499938964844,29.628000259399414 62.31800079345703,29.628000259399414 C62.31800079345703,29.628000259399414 60.49100112915039,29.628000259399414 60.49100112915039,29.628000259399414 C60.49100112915039,29.628000259399414 60.49100112915039,16.72100067138672 60.49100112915039,16.72100067138672 C60.49100112915039,16.72100067138672 62.31800079345703,16.72100067138672 62.31800079345703,16.72100067138672z M55.53099822998047,45 C55.53099822998047,45 60.49100112915039,45 60.49100112915039,45 C60.49100112915039,45 60.49100112915039,33.88199996948242 60.49100112915039,33.88199996948242 C60.49100112915039,33.88199996948242 62.882999420166016,33.88199996948242 62.882999420166016,33.88199996948242 C67.88600158691406,33.88199996948242 69.71399688720703,31.077999114990234 69.71399688720703,26.486000061035156 C69.71399688720703,26.486000061035156 69.71399688720703,19.572999954223633 69.71399688720703,19.572999954223633 C69.71399688720703,14.980999946594238 67.88600158691406,12.22599983215332 62.882999420166016,12.22599983215332 C62.882999420166016,12.22599983215332 55.53099822998047,12.22599983215332 55.53099822998047,12.22599983215332 C55.53099822998047,12.22599983215332 55.53099822998047,45 55.53099822998047,45z"></path></g><g opacity="1" transform="matrix(1,0,0,1,0,0)"><path fill="rgb(255,255,255)" fill-opacity="1" d=" M42.409000396728516,12.22599983215332 C42.409000396728516,12.22599983215332 34.75199890136719,12.22599983215332 34.75199890136719,12.22599983215332 C34.75199890136719,12.22599983215332 34.75199890136719,45 34.75199890136719,45 C34.75199890136719,45 42.409000396728516,45 42.409000396728516,45 C47.71699905395508,45 49.5880012512207,41.229000091552734 49.5880012512207,36.20199966430664 C49.5880012512207,36.20199966430664 49.5880012512207,21.023000717163086 49.5880012512207,21.023000717163086 C49.5880012512207,15.946999549865723 47.71699905395508,12.22599983215332 42.409000396728516,12.22599983215332z M39.71200180053711,40.50400161743164 C39.71200180053711,40.50400161743164 39.71200180053711,16.72100067138672 39.71200180053711,16.72100067138672 C39.71200180053711,16.72100067138672 41.79999923706055,16.72100067138672 41.79999923706055,16.72100067138672 C43.845001220703125,16.72100067138672 44.62799835205078,18.073999404907227 44.62799835205078,20.007999420166016 C44.62799835205078,20.007999420166016 44.62799835205078,37.16899871826172 44.62799835205078,37.16899871826172 C44.62799835205078,39.1510009765625 43.845001220703125,40.50400161743164 41.79999923706055,40.50400161743164 C41.79999923706055,40.50400161743164 39.71200180053711,40.50400161743164 39.71200180053711,40.50400161743164z"></path></g><g opacity="1" transform="matrix(1,0,0,1,0,0)"><path fill="rgb(255,255,255)" fill-opacity="1" d=" M28.489999771118164,45 C28.489999771118164,45 32.840999603271484,45 32.840999603271484,45 C32.840999603271484,45 32.840999603271484,12.22599983215332 32.840999603271484,12.22599983215332 C32.840999603271484,12.22599983215332 28.70800018310547,12.22599983215332 28.70800018310547,12.22599983215332 C28.70800018310547,12.22599983215332 28.70800018310547,31.030000686645508 28.70800018310547,31.030000686645508 C28.70800018310547,31.030000686645508 23.356000900268555,12.22599983215332 23.356000900268555,12.22599983215332 C23.356000900268555,12.22599983215332 18.483999252319336,12.22599983215332 18.483999252319336,12.22599983215332 C18.483999252319336,12.22599983215332 18.483999252319336,45 18.483999252319336,45 C18.483999252319336,45 22.65999984741211,45 22.65999984741211,45 C22.65999984741211,45 22.65999984741211,24.406999588012695 22.65999984741211,24.406999588012695 C22.65999984741211,24.406999588012695 28.489999771118164,45 28.489999771118164,45z"></path></g><g opacity="1" transform="matrix(1,0,0,1,0,0)"><path fill="rgb(255,255,255)" fill-opacity="1" d=" M8.484000205993652,21.45800018310547 C8.484000205993652,21.45800018310547 8.527000427246094,21.45800018310547 8.527000427246094,21.45800018310547 C8.527000427246094,21.45800018310547 10.484999656677246,34.606998443603516 10.484999656677246,34.606998443603516 C10.484999656677246,34.606998443603516 6.526000022888184,34.606998443603516 6.526000022888184,34.606998443603516 C6.526000022888184,34.606998443603516 8.484000205993652,21.45800018310547 8.484000205993652,21.45800018310547z M5.002999782562256,45 C5.002999782562256,45 5.873000144958496,39.00600051879883 5.873000144958496,39.00600051879883 C5.873000144958496,39.00600051879883 11.13700008392334,39.00600051879883 11.13700008392334,39.00600051879883 C11.13700008392334,39.00600051879883 12.050999641418457,45 12.050999641418457,45 C12.050999641418457,45 17.141000747680664,45 17.141000747680664,45 C17.141000747680664,45 11.529000282287598,12.22599983215332 11.529000282287598,12.22599983215332 C11.529000282287598,12.22599983215332 5.873000144958496,12.22599983215332 5.873000144958496,12.22599983215332 C5.873000144958496,12.22599983215332 0.3050000071525574,45 0.3050000071525574,45 C0.3050000071525574,45 5.002999782562256,45 5.002999782562256,45z"></path></g><g opacity="1" transform="matrix(1,0,0,1,0,0)"><path fill="rgb(255,255,255)" fill-opacity="1" d=" M328.6499938964844,0 C328.6499938964844,0 333,0 333,0 C333,0 333,-32.77399826049805 333,-32.77399826049805 C333,-32.77399826049805 328.86700439453125,-32.77399826049805 328.86700439453125,-32.77399826049805 C328.86700439453125,-32.77399826049805 328.86700439453125,-13.970000267028809 328.86700439453125,-13.970000267028809 C328.86700439453125,-13.970000267028809 323.5159912109375,-32.77399826049805 323.5159912109375,-32.77399826049805 C323.5159912109375,-32.77399826049805 318.64300537109375,-32.77399826049805 318.64300537109375,-32.77399826049805 C318.64300537109375,-32.77399826049805 318.64300537109375,0 318.64300537109375,0 C318.64300537109375,0 322.82000732421875,0 322.82000732421875,0 C322.82000732421875,0 322.82000732421875,-20.593000411987305 322.82000732421875,-20.593000411987305 C322.82000732421875,-20.593000411987305 328.6499938964844,0 328.6499938964844,0z"></path></g><g opacity="1" transform="matrix(1,0,0,1,0,0)"><path fill="rgb(255,255,255)" fill-opacity="1" d=" M309.2919921875,0.3869999945163727 C314.5559997558594,0.3869999945163727 316.8179931640625,-3.382999897003174 316.8179931640625,-8.458999633789062 C316.8179931640625,-8.458999633789062 316.8179931640625,-24.315000534057617 316.8179931640625,-24.315000534057617 C316.8179931640625,-29.43899917602539 314.5559997558594,-33.1609992980957 309.2919921875,-33.1609992980957 C304.0710144042969,-33.1609992980957 301.8089904785156,-29.43899917602539 301.8089904785156,-24.315000534057617 C301.8089904785156,-24.315000534057617 301.8089904785156,-8.458999633789062 301.8089904785156,-8.458999633789062 C301.8089904785156,-3.382999897003174 304.0710144042969,0.3869999945163727 309.2919921875,0.3869999945163727z M309.2919921875,-4.205999851226807 C307.552001953125,-4.205999851226807 306.7690124511719,-5.60699987411499 306.7690124511719,-7.589000225067139 C306.7690124511719,-7.589000225067139 306.7690124511719,-25.184999465942383 306.7690124511719,-25.184999465942383 C306.7690124511719,-27.16699981689453 307.552001953125,-28.569000244140625 309.2919921875,-28.569000244140625 C311.07598876953125,-28.569000244140625 311.8590087890625,-27.16699981689453 311.8590087890625,-25.184999465942383 C311.8590087890625,-25.184999465942383 311.8590087890625,-7.589000225067139 311.8590087890625,-7.589000225067139 C311.8590087890625,-5.60699987411499 311.07598876953125,-4.205999851226807 309.2919921875,-4.205999851226807z"></path></g><g opacity="1" transform="matrix(1,0,0,1,0,0)"><path fill="rgb(255,255,255)" fill-opacity="1" d=" M294.9580078125,0 C294.9580078125,0 299.9169921875,0 299.9169921875,0 C299.9169921875,0 299.9169921875,-32.77399826049805 299.9169921875,-32.77399826049805 C299.9169921875,-32.77399826049805 294.9580078125,-32.77399826049805 294.9580078125,-32.77399826049805 C294.9580078125,-32.77399826049805 294.9580078125,0 294.9580078125,0z"></path></g><g opacity="1" transform="matrix(1,0,0,1,0,0)"><path fill="rgb(255,255,255)" fill-opacity="1" d=" M280.2879943847656,-28.27899932861328 C280.2879943847656,-28.27899932861328 284.37701416015625,-28.27899932861328 284.37701416015625,-28.27899932861328 C284.37701416015625,-28.27899932861328 284.37701416015625,0 284.37701416015625,0 C284.37701416015625,0 289.3810119628906,0 289.3810119628906,0 C289.3810119628906,0 289.3810119628906,-28.27899932861328 289.3810119628906,-28.27899932861328 C289.3810119628906,-28.27899932861328 293.4700012207031,-28.27899932861328 293.4700012207031,-28.27899932861328 C293.4700012207031,-28.27899932861328 293.4700012207031,-32.77399826049805 293.4700012207031,-32.77399826049805 C293.4700012207031,-32.77399826049805 280.2879943847656,-32.77399826049805 280.2879943847656,-32.77399826049805 C280.2879943847656,-32.77399826049805 280.2879943847656,-28.27899932861328 280.2879943847656,-28.27899932861328z"></path></g><g opacity="1" transform="matrix(1,0,0,1,0,0)"><path fill="rgb(255,255,255)" fill-opacity="1" d=" M271.6260070800781,-28.27899932861328 C273.322998046875,-28.27899932861328 274.06298828125,-27.409000396728516 274.06298828125,-25.6200008392334 C274.06298828125,-25.6200008392334 274.06298828125,-18.07900047302246 274.06298828125,-18.07900047302246 C274.06298828125,-16.290000915527344 273.322998046875,-15.371999740600586 271.6260070800781,-15.371999740600586 C271.6260070800781,-15.371999740600586 269.79901123046875,-15.371999740600586 269.79901123046875,-15.371999740600586 C269.79901123046875,-15.371999740600586 269.79901123046875,-28.27899932861328 269.79901123046875,-28.27899932861328 C269.79901123046875,-28.27899932861328 271.6260070800781,-28.27899932861328 271.6260070800781,-28.27899932861328z M264.8389892578125,0 C264.8389892578125,0 269.79901123046875,0 269.79901123046875,0 C269.79901123046875,0 269.79901123046875,-11.118000030517578 269.79901123046875,-11.118000030517578 C269.79901123046875,-11.118000030517578 272.1919860839844,-11.118000030517578 272.1919860839844,-11.118000030517578 C277.19500732421875,-11.118000030517578 279.0220031738281,-13.92199993133545 279.0220031738281,-18.513999938964844 C279.0220031738281,-18.513999938964844 279.0220031738281,-25.427000045776367 279.0220031738281,-25.427000045776367 C279.0220031738281,-30.018999099731445 277.19500732421875,-32.77399826049805 272.1919860839844,-32.77399826049805 C272.1919860839844,-32.77399826049805 264.8389892578125,-32.77399826049805 264.8389892578125,-32.77399826049805 C264.8389892578125,-32.77399826049805 264.8389892578125,0 264.8389892578125,0z"></path></g><g opacity="1" transform="matrix(1,0,0,1,0,0)"><path fill="rgb(255,255,255)" fill-opacity="1" d=" M258.40899658203125,0 C258.40899658203125,0 262.9330139160156,0 262.9330139160156,0 C262.9330139160156,0 262.9330139160156,-32.77399826049805 262.9330139160156,-32.77399826049805 C262.9330139160156,-32.77399826049805 256.6679992675781,-32.77399826049805 256.6679992675781,-32.77399826049805 C256.6679992675781,-32.77399826049805 253.7969970703125,-14.309000015258789 253.7969970703125,-14.309000015258789 C253.7969970703125,-14.309000015258789 253.7530059814453,-14.309000015258789 253.7530059814453,-14.309000015258789 C253.7530059814453,-14.309000015258789 250.53399658203125,-32.77399826049805 250.53399658203125,-32.77399826049805 C250.53399658203125,-32.77399826049805 244.7480010986328,-32.77399826049805 244.7480010986328,-32.77399826049805 C244.7480010986328,-32.77399826049805 244.7480010986328,0 244.7480010986328,0 C244.7480010986328,0 248.83700561523438,0 248.83700561523438,0 C248.83700561523438,0 248.83700561523438,-21.270000457763672 248.83700561523438,-21.270000457763672 C248.83700561523438,-21.270000457763672 248.9239959716797,-21.270000457763672 248.9239959716797,-21.270000457763672 C248.9239959716797,-21.270000457763672 252.6219940185547,0 252.6219940185547,0 C252.6219940185547,0 254.92799377441406,0 254.92799377441406,0 C254.92799377441406,0 258.27801513671875,-21.270000457763672 258.27801513671875,-21.270000457763672 C258.27801513671875,-21.270000457763672 258.40899658203125,-21.270000457763672 258.40899658203125,-21.270000457763672 C258.40899658203125,-21.270000457763672 258.40899658203125,0 258.40899658203125,0z"></path></g><g opacity="1" transform="matrix(1,0,0,1,0,0)"><path fill="rgb(255,255,255)" fill-opacity="1" d=" M238.28900146484375,-32.77399826049805 C238.28900146484375,-32.77399826049805 238.28900146484375,-7.443999767303467 238.28900146484375,-7.443999767303467 C238.28900146484375,-5.510000228881836 237.59300231933594,-4.205999851226807 235.85299682617188,-4.205999851226807 C234.11300659179688,-4.205999851226807 233.41700744628906,-5.510000228881836 233.41700744628906,-7.443999767303467 C233.41700744628906,-7.443999767303467 233.41700744628906,-32.77399826049805 233.41700744628906,-32.77399826049805 C233.41700744628906,-32.77399826049805 228.45700073242188,-32.77399826049805 228.45700073242188,-32.77399826049805 C228.45700073242188,-32.77399826049805 228.45700073242188,-7.97599983215332 228.45700073242188,-7.97599983215332 C228.45700073242188,-2.9000000953674316 230.6320037841797,0.3869999945163727 235.85299682617188,0.3869999945163727 C240.89999389648438,0.3869999945163727 242.85800170898438,-2.9000000953674316 242.85800170898438,-7.97599983215332 C242.85800170898438,-7.97599983215332 242.85800170898438,-32.77399826049805 242.85800170898438,-32.77399826049805 C242.85800170898438,-32.77399826049805 238.28900146484375,-32.77399826049805 238.28900146484375,-32.77399826049805z"></path></g><g opacity="1" transform="matrix(1,0,0,1,0,0)"><path fill="rgb(255,255,255)" fill-opacity="1" d=" M219.61000061035156,0.3869999945163727 C224.65699768066406,0.3869999945163727 226.83200073242188,-2.802999973297119 226.83200073242188,-7.298999786376953 C226.83200073242188,-7.298999786376953 226.83200073242188,-8.895000457763672 226.83200073242188,-8.895000457763672 C226.83200073242188,-12.520000457763672 225.5260009765625,-14.357000350952148 222.82899475097656,-17.402000427246094 C222.82899475097656,-17.402000427246094 219.6529998779297,-20.882999420166016 219.6529998779297,-20.882999420166016 C218.2169952392578,-22.43000030517578 217.3040008544922,-23.493000030517578 217.3040008544922,-25.329999923706055 C217.3040008544922,-25.329999923706055 217.3040008544922,-26.006999969482422 217.3040008544922,-26.006999969482422 C217.3040008544922,-27.8439998626709 218.26100158691406,-28.714000701904297 219.6529998779297,-28.714000701904297 C221.218994140625,-28.714000701904297 222.0030059814453,-27.795000076293945 222.0030059814453,-25.90999984741211 C222.0030059814453,-25.90999984741211 222.0030059814453,-23.058000564575195 222.0030059814453,-23.058000564575195 C222.0030059814453,-23.058000564575195 226.52699279785156,-23.058000564575195 226.52699279785156,-23.058000564575195 C226.52699279785156,-23.058000564575195 226.52699279785156,-25.716999053955078 226.52699279785156,-25.716999053955078 C226.52699279785156,-30.45400047302246 224.57000732421875,-33.1609992980957 219.61000061035156,-33.1609992980957 C214.781005859375,-33.1609992980957 212.6490020751953,-30.018999099731445 212.6490020751953,-25.95800018310547 C212.6490020751953,-25.95800018310547 212.6490020751953,-24.847000122070312 212.6490020751953,-24.847000122070312 C212.6490020751953,-21.076000213623047 213.95399475097656,-19.19099998474121 216.78199768066406,-16.097000122070312 C216.78199768066406,-16.097000122070312 219.69700622558594,-12.857999801635742 219.69700622558594,-12.857999801635742 C221.22000122070312,-11.262999534606934 221.91600036621094,-10.102999687194824 221.91600036621094,-8.218000411987305 C221.91600036621094,-8.218000411987305 221.91600036621094,-6.960999965667725 221.91600036621094,-6.960999965667725 C221.91600036621094,-5.2210001945495605 221.218994140625,-4.060999870300293 219.6529998779297,-4.060999870300293 C217.95599365234375,-4.060999870300293 217.2169952392578,-5.124000072479248 217.2169952392578,-6.960999965667725 C217.2169952392578,-6.960999965667725 217.2169952392578,-11.456999778747559 217.2169952392578,-11.456999778747559 C217.2169952392578,-11.456999778747559 212.60499572753906,-11.456999778747559 212.60499572753906,-11.456999778747559 C212.60499572753906,-11.456999778747559 212.60499572753906,-7.058000087738037 212.60499572753906,-7.058000087738037 C212.60499572753906,-2.75600004196167 214.56300354003906,0.3869999945163727 219.61000061035156,0.3869999945163727z"></path></g><g opacity="1" transform="matrix(1,0,0,1,0,0)"><path fill="rgb(255,255,255)" fill-opacity="1" d=" M206.656005859375,0 C206.656005859375,0 211.00599670410156,0 211.00599670410156,0 C211.00599670410156,0 211.00599670410156,-32.77399826049805 211.00599670410156,-32.77399826049805 C211.00599670410156,-32.77399826049805 206.8730010986328,-32.77399826049805 206.8730010986328,-32.77399826049805 C206.8730010986328,-32.77399826049805 206.8730010986328,-13.970000267028809 206.8730010986328,-13.970000267028809 C206.8730010986328,-13.970000267028809 201.52200317382812,-32.77399826049805 201.52200317382812,-32.77399826049805 C201.52200317382812,-32.77399826049805 196.64999389648438,-32.77399826049805 196.64999389648438,-32.77399826049805 C196.64999389648438,-32.77399826049805 196.64999389648438,0 196.64999389648438,0 C196.64999389648438,0 200.8260040283203,0 200.8260040283203,0 C200.8260040283203,0 200.8260040283203,-20.593000411987305 200.8260040283203,-20.593000411987305 C200.8260040283203,-20.593000411987305 206.656005859375,0 206.656005859375,0z"></path></g><g opacity="1" transform="matrix(1,0,0,1,0,0)"><path fill="rgb(255,255,255)" fill-opacity="1" d=" M187.29800415039062,0.3869999945163727 C192.56199645996094,0.3869999945163727 194.8249969482422,-3.382999897003174 194.8249969482422,-8.458999633789062 C194.8249969482422,-8.458999633789062 194.8249969482422,-24.315000534057617 194.8249969482422,-24.315000534057617 C194.8249969482422,-29.43899917602539 192.56199645996094,-33.1609992980957 187.29800415039062,-33.1609992980957 C182.07699584960938,-33.1609992980957 179.81500244140625,-29.43899917602539 179.81500244140625,-24.315000534057617 C179.81500244140625,-24.315000534057617 179.81500244140625,-8.458999633789062 179.81500244140625,-8.458999633789062 C179.81500244140625,-3.382999897003174 182.07699584960938,0.3869999945163727 187.29800415039062,0.3869999945163727z M187.29800415039062,-4.205999851226807 C185.55799865722656,-4.205999851226807 184.77499389648438,-5.60699987411499 184.77499389648438,-7.589000225067139 C184.77499389648438,-7.589000225067139 184.77499389648438,-25.184999465942383 184.77499389648438,-25.184999465942383 C184.77499389648438,-27.16699981689453 185.55799865722656,-28.569000244140625 187.29800415039062,-28.569000244140625 C189.08200073242188,-28.569000244140625 189.86500549316406,-27.16699981689453 189.86500549316406,-25.184999465942383 C189.86500549316406,-25.184999465942383 189.86500549316406,-7.589000225067139 189.86500549316406,-7.589000225067139 C189.86500549316406,-5.60699987411499 189.08200073242188,-4.205999851226807 187.29800415039062,-4.205999851226807z"></path></g><g opacity="1" transform="matrix(1,0,0,1,0,0)"><path fill="rgb(255,255,255)" fill-opacity="1" d=" M171.14999389648438,0.3869999945163727 C176.41400146484375,0.3869999945163727 178.1540069580078,-3.0940001010894775 178.1540069580078,-7.7829999923706055 C178.1540069580078,-7.7829999923706055 178.1540069580078,-13.437999725341797 178.1540069580078,-13.437999725341797 C178.1540069580078,-13.437999725341797 173.62899780273438,-13.437999725341797 173.62899780273438,-13.437999725341797 C173.62899780273438,-13.437999725341797 173.62899780273438,-7.395999908447266 173.62899780273438,-7.395999908447266 C173.62899780273438,-5.461999893188477 173.02099609375,-4.205999851226807 171.23699951171875,-4.205999851226807 C169.4530029296875,-4.205999851226807 168.71299743652344,-5.60699987411499 168.71299743652344,-7.589000225067139 C168.71299743652344,-7.589000225067139 168.71299743652344,-25.184999465942383 168.71299743652344,-25.184999465942383 C168.71299743652344,-27.16699981689453 169.4530029296875,-28.569000244140625 171.23699951171875,-28.569000244140625 C173.02099609375,-28.569000244140625 173.62899780273438,-27.408000946044922 173.62899780273438,-25.378000259399414 C173.62899780273438,-25.378000259399414 173.62899780273438,-21.076000213623047 173.62899780273438,-21.076000213623047 C173.62899780273438,-21.076000213623047 178.1540069580078,-21.076000213623047 178.1540069580078,-21.076000213623047 C178.1540069580078,-21.076000213623047 178.1540069580078,-24.94300079345703 178.1540069580078,-24.94300079345703 C178.1540069580078,-29.777000427246094 176.6320037841797,-33.1609992980957 171.14999389648438,-33.1609992980957 C165.9290008544922,-33.1609992980957 163.75399780273438,-29.43899917602539 163.75399780273438,-24.315000534057617 C163.75399780273438,-24.315000534057617 163.75399780273438,-8.458999633789062 163.75399780273438,-8.458999633789062 C163.75399780273438,-3.382999897003174 165.9290008544922,0.3869999945163727 171.14999389648438,0.3869999945163727z"></path></g><g opacity="1" transform="matrix(1,0,0,1,0,0)"><path fill="rgb(255,255,255)" fill-opacity="1" d=" M146.12899780273438,0 C146.12899780273438,0 157.96200561523438,0 157.96200561523438,0 C157.96200561523438,0 157.96200561523438,-4.495999813079834 157.96200561523438,-4.495999813079834 C157.96200561523438,-4.495999813079834 151.08799743652344,-4.495999813079834 151.08799743652344,-4.495999813079834 C151.08799743652344,-4.495999813079834 151.08799743652344,-14.454000473022461 151.08799743652344,-14.454000473022461 C151.08799743652344,-14.454000473022461 156.00399780273438,-14.454000473022461 156.00399780273438,-14.454000473022461 C156.00399780273438,-14.454000473022461 156.00399780273438,-18.900999069213867 156.00399780273438,-18.900999069213867 C156.00399780273438,-18.900999069213867 151.08799743652344,-18.900999069213867 151.08799743652344,-18.900999069213867 C151.08799743652344,-18.900999069213867 151.08799743652344,-28.27899932861328 151.08799743652344,-28.27899932861328 C151.08799743652344,-28.27899932861328 157.96200561523438,-28.27899932861328 157.96200561523438,-28.27899932861328 C157.96200561523438,-28.27899932861328 157.96200561523438,-32.77399826049805 157.96200561523438,-32.77399826049805 C157.96200561523438,-32.77399826049805 146.12899780273438,-32.77399826049805 146.12899780273438,-32.77399826049805 C146.12899780273438,-32.77399826049805 146.12899780273438,0 146.12899780273438,0z"></path></g><g opacity="1" transform="matrix(1,0,0,1,0,0)"><path fill="rgb(255,255,255)" fill-opacity="1" d=" M133.79100036621094,0 C133.79100036621094,0 144.66799926757812,0 144.66799926757812,0 C144.66799926757812,0 144.66799926757812,-4.495999813079834 144.66799926757812,-4.495999813079834 C144.66799926757812,-4.495999813079834 138.75100708007812,-4.495999813079834 138.75100708007812,-4.495999813079834 C138.75100708007812,-4.495999813079834 138.75100708007812,-32.77399826049805 138.75100708007812,-32.77399826049805 C138.75100708007812,-32.77399826049805 133.79100036621094,-32.77399826049805 133.79100036621094,-32.77399826049805 C133.79100036621094,-32.77399826049805 133.79100036621094,0 133.79100036621094,0z"></path></g><g opacity="1" transform="matrix(1,0,0,1,0,0)"><path fill="rgb(255,255,255)" fill-opacity="1" d=" M122.65899658203125,-28.27899932861328 C122.65899658203125,-28.27899932861328 124.35600280761719,-28.27899932861328 124.35600280761719,-28.27899932861328 C126.00900268554688,-28.27899932861328 126.7490005493164,-27.409000396728516 126.7490005493164,-25.6200008392334 C126.7490005493164,-25.6200008392334 126.7490005493164,-21.607999801635742 126.7490005493164,-21.607999801635742 C126.7490005493164,-19.868000030517578 126.00900268554688,-18.948999404907227 124.39900207519531,-18.948999404907227 C124.39900207519531,-18.948999404907227 122.65899658203125,-18.948999404907227 122.65899658203125,-18.948999404907227 C122.65899658203125,-18.948999404907227 122.65899658203125,-28.27899932861328 122.65899658203125,-28.27899932861328z M124.79100036621094,-14.744000434875488 C126.53099822998047,-14.744000434875488 127.27100372314453,-13.824999809265137 127.27100372314453,-12.085000038146973 C127.27100372314453,-12.085000038146973 127.27100372314453,-7.1539998054504395 127.27100372314453,-7.1539998054504395 C127.27100372314453,-5.414000034332275 126.48699951171875,-4.495999813079834 124.83399963378906,-4.495999813079834 C124.83399963378906,-4.495999813079834 122.65899658203125,-4.495999813079834 122.65899658203125,-4.495999813079834 C122.65899658203125,-4.495999813079834 122.65899658203125,-14.744000434875488 122.65899658203125,-14.744000434875488 C122.65899658203125,-14.744000434875488 124.79100036621094,-14.744000434875488 124.79100036621094,-14.744000434875488z M117.69999694824219,0 C117.69999694824219,0 125.4000015258789,0 125.4000015258789,0 C130.36000061035156,0 132.22999572753906,-2.562000036239624 132.22999572753906,-7.203000068664551 C132.22999572753906,-7.203000068664551 132.22999572753906,-11.553000450134277 132.22999572753906,-11.553000450134277 C132.22999572753906,-14.550000190734863 131.01199340820312,-16.38800048828125 128.53199768066406,-17.016000747680664 C130.57699584960938,-17.740999221801758 131.49099731445312,-19.481000900268555 131.49099731445312,-22.236000061035156 C131.49099731445312,-22.236000061035156 131.49099731445312,-25.57200050354004 131.49099731445312,-25.57200050354004 C131.49099731445312,-30.21299934387207 129.83799743652344,-32.77399826049805 124.87799835205078,-32.77399826049805 C124.87799835205078,-32.77399826049805 117.69999694824219,-32.77399826049805 117.69999694824219,-32.77399826049805 C117.69999694824219,-32.77399826049805 117.69999694824219,0 117.69999694824219,0z"></path></g><g opacity="1" transform="matrix(1,0,0,1,0,0)"><path fill="rgb(255,255,255)" fill-opacity="1" d=" M110.79199981689453,0 C110.79199981689453,0 115.75199890136719,0 115.75199890136719,0 C115.75199890136719,0 115.75199890136719,-32.77399826049805 115.75199890136719,-32.77399826049805 C115.75199890136719,-32.77399826049805 110.79199981689453,-32.77399826049805 110.79199981689453,-32.77399826049805 C110.79199981689453,-32.77399826049805 110.79199981689453,0 110.79199981689453,0z"></path></g><g opacity="1" transform="matrix(1,0,0,1,0,0)"><path fill="rgb(255,255,255)" fill-opacity="1" d=" M101.94499969482422,0.3869999945163727 C106.99199676513672,0.3869999945163727 109.16699981689453,-2.802999973297119 109.16699981689453,-7.298999786376953 C109.16699981689453,-7.298999786376953 109.16699981689453,-8.895000457763672 109.16699981689453,-8.895000457763672 C109.16699981689453,-12.520000457763672 107.86100006103516,-14.357000350952148 105.16400146484375,-17.402000427246094 C105.16400146484375,-17.402000427246094 101.98799896240234,-20.882999420166016 101.98799896240234,-20.882999420166016 C100.552001953125,-22.43000030517578 99.63899993896484,-23.493000030517578 99.63899993896484,-25.329999923706055 C99.63899993896484,-25.329999923706055 99.63899993896484,-26.006999969482422 99.63899993896484,-26.006999969482422 C99.63899993896484,-27.8439998626709 100.59600067138672,-28.714000701904297 101.98799896240234,-28.714000701904297 C103.55400085449219,-28.714000701904297 104.33799743652344,-27.795000076293945 104.33799743652344,-25.90999984741211 C104.33799743652344,-25.90999984741211 104.33799743652344,-23.058000564575195 104.33799743652344,-23.058000564575195 C104.33799743652344,-23.058000564575195 108.86199951171875,-23.058000564575195 108.86199951171875,-23.058000564575195 C108.86199951171875,-23.058000564575195 108.86199951171875,-25.716999053955078 108.86199951171875,-25.716999053955078 C108.86199951171875,-30.45400047302246 106.90499877929688,-33.1609992980957 101.94499969482422,-33.1609992980957 C97.11599731445312,-33.1609992980957 94.98400115966797,-30.018999099731445 94.98400115966797,-25.95800018310547 C94.98400115966797,-25.95800018310547 94.98400115966797,-24.847000122070312 94.98400115966797,-24.847000122070312 C94.98400115966797,-21.076000213623047 96.28900146484375,-19.19099998474121 99.11699676513672,-16.097000122070312 C99.11699676513672,-16.097000122070312 102.03199768066406,-12.857999801635742 102.03199768066406,-12.857999801635742 C103.55500030517578,-11.262999534606934 104.2509994506836,-10.102999687194824 104.2509994506836,-8.218000411987305 C104.2509994506836,-8.218000411987305 104.2509994506836,-6.960999965667725 104.2509994506836,-6.960999965667725 C104.2509994506836,-5.2210001945495605 103.55400085449219,-4.060999870300293 101.98799896240234,-4.060999870300293 C100.29100036621094,-4.060999870300293 99.552001953125,-5.124000072479248 99.552001953125,-6.960999965667725 C99.552001953125,-6.960999965667725 99.552001953125,-11.456999778747559 99.552001953125,-11.456999778747559 C99.552001953125,-11.456999778747559 94.94000244140625,-11.456999778747559 94.94000244140625,-11.456999778747559 C94.94000244140625,-11.456999778747559 94.94000244140625,-7.058000087738037 94.94000244140625,-7.058000087738037 C94.94000244140625,-2.75600004196167 96.89800262451172,0.3869999945163727 101.94499969482422,0.3869999945163727z"></path></g><g opacity="1" transform="matrix(1,0,0,1,0,0)"><path fill="rgb(255,255,255)" fill-opacity="1" d=" M88.99099731445312,0 C88.99099731445312,0 93.34100341796875,0 93.34100341796875,0 C93.34100341796875,0 93.34100341796875,-32.77399826049805 93.34100341796875,-32.77399826049805 C93.34100341796875,-32.77399826049805 89.20800018310547,-32.77399826049805 89.20800018310547,-32.77399826049805 C89.20800018310547,-32.77399826049805 89.20800018310547,-13.970000267028809 89.20800018310547,-13.970000267028809 C89.20800018310547,-13.970000267028809 83.85700225830078,-32.77399826049805 83.85700225830078,-32.77399826049805 C83.85700225830078,-32.77399826049805 78.98500061035156,-32.77399826049805 78.98500061035156,-32.77399826049805 C78.98500061035156,-32.77399826049805 78.98500061035156,0 78.98500061035156,0 C78.98500061035156,0 83.16100311279297,0 83.16100311279297,0 C83.16100311279297,0 83.16100311279297,-20.593000411987305 83.16100311279297,-20.593000411987305 C83.16100311279297,-20.593000411987305 88.99099731445312,0 88.99099731445312,0z"></path></g><g opacity="1" transform="matrix(1,0,0,1,0,0)"><path fill="rgb(255,255,255)" fill-opacity="1" d=" M69.63300323486328,0.3869999945163727 C74.89700317382812,0.3869999945163727 77.16000366210938,-3.382999897003174 77.16000366210938,-8.458999633789062 C77.16000366210938,-8.458999633789062 77.16000366210938,-24.315000534057617 77.16000366210938,-24.315000534057617 C77.16000366210938,-29.43899917602539 74.89700317382812,-33.1609992980957 69.63300323486328,-33.1609992980957 C64.41200256347656,-33.1609992980957 62.150001525878906,-29.43899917602539 62.150001525878906,-24.315000534057617 C62.150001525878906,-24.315000534057617 62.150001525878906,-8.458999633789062 62.150001525878906,-8.458999633789062 C62.150001525878906,-3.382999897003174 64.41200256347656,0.3869999945163727 69.63300323486328,0.3869999945163727z M69.63300323486328,-4.205999851226807 C67.89299774169922,-4.205999851226807 67.11000061035156,-5.60699987411499 67.11000061035156,-7.589000225067139 C67.11000061035156,-7.589000225067139 67.11000061035156,-25.184999465942383 67.11000061035156,-25.184999465942383 C67.11000061035156,-27.16699981689453 67.89299774169922,-28.569000244140625 69.63300323486328,-28.569000244140625 C71.41699981689453,-28.569000244140625 72.19999694824219,-27.16699981689453 72.19999694824219,-25.184999465942383 C72.19999694824219,-25.184999465942383 72.19999694824219,-7.589000225067139 72.19999694824219,-7.589000225067139 C72.19999694824219,-5.60699987411499 71.41699981689453,-4.205999851226807 69.63300323486328,-4.205999851226807z"></path></g><g opacity="1" transform="matrix(1,0,0,1,0,0)"><path fill="rgb(255,255,255)" fill-opacity="1" d=" M53.152000427246094,-28.27899932861328 C54.8489990234375,-28.27899932861328 55.5880012512207,-27.409000396728516 55.5880012512207,-25.6200008392334 C55.5880012512207,-25.6200008392334 55.5880012512207,-18.07900047302246 55.5880012512207,-18.07900047302246 C55.5880012512207,-16.290000915527344 54.8489990234375,-15.371999740600586 53.152000427246094,-15.371999740600586 C53.152000427246094,-15.371999740600586 51.32500076293945,-15.371999740600586 51.32500076293945,-15.371999740600586 C51.32500076293945,-15.371999740600586 51.32500076293945,-28.27899932861328 51.32500076293945,-28.27899932861328 C51.32500076293945,-28.27899932861328 53.152000427246094,-28.27899932861328 53.152000427246094,-28.27899932861328z M46.3650016784668,0 C46.3650016784668,0 51.32500076293945,0 51.32500076293945,0 C51.32500076293945,0 51.32500076293945,-11.118000030517578 51.32500076293945,-11.118000030517578 C51.32500076293945,-11.118000030517578 53.71699905395508,-11.118000030517578 53.71699905395508,-11.118000030517578 C58.720001220703125,-11.118000030517578 60.54800033569336,-13.92199993133545 60.54800033569336,-18.513999938964844 C60.54800033569336,-18.513999938964844 60.54800033569336,-25.427000045776367 60.54800033569336,-25.427000045776367 C60.54800033569336,-30.018999099731445 58.720001220703125,-32.77399826049805 53.71699905395508,-32.77399826049805 C53.71699905395508,-32.77399826049805 46.3650016784668,-32.77399826049805 46.3650016784668,-32.77399826049805 C46.3650016784668,-32.77399826049805 46.3650016784668,0 46.3650016784668,0z"></path></g><g opacity="1" transform="matrix(1,0,0,1,0,0)"><path fill="rgb(255,255,255)" fill-opacity="1" d=" M37.518001556396484,0.3869999945163727 C42.564998626708984,0.3869999945163727 44.7400016784668,-2.802999973297119 44.7400016784668,-7.298999786376953 C44.7400016784668,-7.298999786376953 44.7400016784668,-8.895000457763672 44.7400016784668,-8.895000457763672 C44.7400016784668,-12.520000457763672 43.433998107910156,-14.357000350952148 40.73699951171875,-17.402000427246094 C40.73699951171875,-17.402000427246094 37.56100082397461,-20.882999420166016 37.56100082397461,-20.882999420166016 C36.125,-22.43000030517578 35.21200180053711,-23.493000030517578 35.21200180053711,-25.329999923706055 C35.21200180053711,-25.329999923706055 35.21200180053711,-26.006999969482422 35.21200180053711,-26.006999969482422 C35.21200180053711,-27.8439998626709 36.16899871826172,-28.714000701904297 37.56100082397461,-28.714000701904297 C39.12699890136719,-28.714000701904297 39.90999984741211,-27.795000076293945 39.90999984741211,-25.90999984741211 C39.90999984741211,-25.90999984741211 39.90999984741211,-23.058000564575195 39.90999984741211,-23.058000564575195 C39.90999984741211,-23.058000564575195 44.435001373291016,-23.058000564575195 44.435001373291016,-23.058000564575195 C44.435001373291016,-23.058000564575195 44.435001373291016,-25.716999053955078 44.435001373291016,-25.716999053955078 C44.435001373291016,-30.45400047302246 42.47800064086914,-33.1609992980957 37.518001556396484,-33.1609992980957 C32.68899917602539,-33.1609992980957 30.55699920654297,-30.018999099731445 30.55699920654297,-25.95800018310547 C30.55699920654297,-25.95800018310547 30.55699920654297,-24.847000122070312 30.55699920654297,-24.847000122070312 C30.55699920654297,-21.076000213623047 31.86199951171875,-19.19099998474121 34.689998626708984,-16.097000122070312 C34.689998626708984,-16.097000122070312 37.60499954223633,-12.857999801635742 37.60499954223633,-12.857999801635742 C39.12799835205078,-11.262999534606934 39.823001861572266,-10.102999687194824 39.823001861572266,-8.218000411987305 C39.823001861572266,-8.218000411987305 39.823001861572266,-6.960999965667725 39.823001861572266,-6.960999965667725 C39.823001861572266,-5.2210001945495605 39.12699890136719,-4.060999870300293 37.56100082397461,-4.060999870300293 C35.86399841308594,-4.060999870300293 35.125,-5.124000072479248 35.125,-6.960999965667725 C35.125,-6.960999965667725 35.125,-11.456999778747559 35.125,-11.456999778747559 C35.125,-11.456999778747559 30.51300048828125,-11.456999778747559 30.51300048828125,-11.456999778747559 C30.51300048828125,-11.456999778747559 30.51300048828125,-7.058000087738037 30.51300048828125,-7.058000087738037 C30.51300048828125,-2.75600004196167 32.47100067138672,0.3869999945163727 37.518001556396484,0.3869999945163727z"></path></g><g opacity="1" transform="matrix(1,0,0,1,0,0)"><path fill="rgb(255,255,255)" fill-opacity="1" d=" M17.214000701904297,0 C17.214000701904297,0 29.04800033569336,0 29.04800033569336,0 C29.04800033569336,0 29.04800033569336,-4.495999813079834 29.04800033569336,-4.495999813079834 C29.04800033569336,-4.495999813079834 22.173999786376953,-4.495999813079834 22.173999786376953,-4.495999813079834 C22.173999786376953,-4.495999813079834 22.173999786376953,-14.454000473022461 22.173999786376953,-14.454000473022461 C22.173999786376953,-14.454000473022461 27.09000015258789,-14.454000473022461 27.09000015258789,-14.454000473022461 C27.09000015258789,-14.454000473022461 27.09000015258789,-18.900999069213867 27.09000015258789,-18.900999069213867 C27.09000015258789,-18.900999069213867 22.173999786376953,-18.900999069213867 22.173999786376953,-18.900999069213867 C22.173999786376953,-18.900999069213867 22.173999786376953,-28.27899932861328 22.173999786376953,-28.27899932861328 C22.173999786376953,-28.27899932861328 29.04800033569336,-28.27899932861328 29.04800033569336,-28.27899932861328 C29.04800033569336,-28.27899932861328 29.04800033569336,-32.77399826049805 29.04800033569336,-32.77399826049805 C29.04800033569336,-32.77399826049805 17.214000701904297,-32.77399826049805 17.214000701904297,-32.77399826049805 C17.214000701904297,-32.77399826049805 17.214000701904297,0 17.214000701904297,0z"></path></g><g opacity="1" transform="matrix(1,0,0,1,0,0)"><path fill="rgb(255,255,255)" fill-opacity="1" d=" M7.701000213623047,-28.27899932861328 C9.39799976348877,-28.27899932861328 10.13700008392334,-27.409000396728516 10.13700008392334,-25.6200008392334 C10.13700008392334,-25.6200008392334 10.13700008392334,-20.785999298095703 10.13700008392334,-20.785999298095703 C10.13700008392334,-19.04599952697754 9.39799976348877,-18.07900047302246 7.701000213623047,-18.07900047302246 C7.701000213623047,-18.07900047302246 6.046999931335449,-18.07900047302246 6.046999931335449,-18.07900047302246 C6.046999931335449,-18.07900047302246 6.046999931335449,-28.27899932861328 6.046999931335449,-28.27899932861328 C6.046999931335449,-28.27899932861328 7.701000213623047,-28.27899932861328 7.701000213623047,-28.27899932861328z M10.70199966430664,0 C10.70199966430664,0 15.92300033569336,0 15.92300033569336,0 C15.92300033569336,0 11.180999755859375,-14.888999938964844 11.180999755859375,-14.888999938964844 C14.008999824523926,-15.61400032043457 15.140000343322754,-17.691999435424805 15.140000343322754,-21.22100067138672 C15.140000343322754,-21.22100067138672 15.140000343322754,-25.427000045776367 15.140000343322754,-25.427000045776367 C15.140000343322754,-30.018999099731445 13.312999725341797,-32.77399826049805 8.3100004196167,-32.77399826049805 C8.3100004196167,-32.77399826049805 1.0880000591278076,-32.77399826049805 1.0880000591278076,-32.77399826049805 C1.0880000591278076,-32.77399826049805 1.0880000591278076,0 1.0880000591278076,0 C1.0880000591278076,0 6.046999931335449,0 6.046999931335449,0 C6.046999931335449,0 6.046999931335449,-15.034000396728516 6.046999931335449,-15.034000396728516 C6.046999931335449,-15.034000396728516 10.70199966430664,0 10.70199966430664,0z"></path></g></g><g style="display: block;" transform="matrix(2.5647878646850586,0,0,2.5647878646850586,57.000431060791016,100.49956512451172)" opacity="1"><g opacity="1" transform="matrix(1,0,0,1,0,0)"><path fill="rgb(255,255,255)" fill-opacity="1" d=" M10.697999954223633,0 C10.697999954223633,0 22.770999908447266,0 22.770999908447266,0 C22.770999908447266,0 22.770999908447266,-4.215000152587891 22.770999908447266,-4.215000152587891 C22.770999908447266,-4.215000152587891 15.144000053405762,-4.215000152587891 15.144000053405762,-4.215000152587891 C15.144000053405762,-4.215000152587891 15.144000053405762,-5.664999961853027 15.144000053405762,-5.664999961853027 C15.144000053405762,-8.067000389099121 15.918999671936035,-8.972999572753906 17.101999282836914,-10.378000259399414 C17.101999282836914,-10.378000259399414 20.07900047302246,-13.866999626159668 20.07900047302246,-13.866999626159668 C22.485000610351562,-16.722000122070312 23.016000747680664,-18.53499984741211 23.016000747680664,-21.617000579833984 C23.016000747680664,-21.617000579833984 23.016000747680664,-24.607999801635742 23.016000747680664,-24.607999801635742 C23.016000747680664,-29.003999710083008 21.099000930786133,-31.089000701904297 16.93899917602539,-31.089000701904297 C12.859999656677246,-31.089000701904297 10.779999732971191,-28.68600082397461 10.779999732971191,-24.381000518798828 C10.779999732971191,-24.381000518798828 10.779999732971191,-20.665000915527344 10.779999732971191,-20.665000915527344 C10.779999732971191,-20.665000915527344 15.022000312805176,-20.665000915527344 15.022000312805176,-20.665000915527344 C15.022000312805176,-20.665000915527344 15.022000312805176,-24.517000198364258 15.022000312805176,-24.517000198364258 C15.022000312805176,-26.375 15.836999893188477,-26.91900062561035 16.81599998474121,-26.91900062561035 C17.71299934387207,-26.91900062561035 18.488000869750977,-26.51099967956543 18.488000869750977,-24.607999801635742 C18.488000869750977,-24.607999801635742 18.488000869750977,-22.06999969482422 18.488000869750977,-22.06999969482422 C18.488000869750977,-19.531999588012695 18.284000396728516,-18.53499984741211 16.774999618530273,-16.76799964904785 C16.774999618530273,-16.76799964904785 14.164999961853027,-13.685999870300293 14.164999961853027,-13.685999870300293 C11.63599967956543,-10.694999694824219 10.697999954223633,-8.701000213623047 10.697999954223633,-5.664999961853027 C10.697999954223633,-5.664999961853027 10.697999954223633,0 10.697999954223633,0z"></path></g><g opacity="1" transform="matrix(1,0,0,1,0,0)"><path fill="rgb(255,255,255)" fill-opacity="1" d=" M5.0980000495910645,-30.72599983215332 C5.0980000495910645,-30.72599983215332 0.8159999847412109,-25.152000427246094 0.8159999847412109,-25.152000427246094 C0.8159999847412109,-25.152000427246094 0.8159999847412109,-19.759000778198242 0.8159999847412109,-19.759000778198242 C0.8159999847412109,-19.759000778198242 0.8569999933242798,-19.759000778198242 0.8569999933242798,-19.759000778198242 C0.8569999933242798,-19.759000778198242 4.11899995803833,-23.520000457763672 4.11899995803833,-23.520000457763672 C4.11899995803833,-23.520000457763672 4.159999847412109,-23.520000457763672 4.159999847412109,-23.520000457763672 C4.159999847412109,-23.520000457763672 4.159999847412109,0 4.159999847412109,0 C4.159999847412109,0 8.8100004196167,0 8.8100004196167,0 C8.8100004196167,0 8.8100004196167,-30.72599983215332 8.8100004196167,-30.72599983215332 C8.8100004196167,-30.72599983215332 5.0980000495910645,-30.72599983215332 5.0980000495910645,-30.72599983215332z"></path></g></g></g><defs><clipPath id="animationMask_WAJ2ItwpRP"><rect width="800" height="125" x="0" y="0"></rect></clipPath></defs></svg>